<svg width="180" height="180" viewBox="0 0 180 180" fill="none" xmlns="http://www.w3.org/2000/svg">
<circle cx="90" cy="90" r="90" fill="white" fill-opacity="0.8"/>
<path d="M80.2511 45.4863C80.2233 44.987 80.2095 44.4877 80.2095 43.9885C80.2095 39.1069 81.5408 34.7246 83.5794 31.6736C85.6042 28.6226 88.1837 27 90.8741 27C93.5645 27 96.144 28.6364 98.1687 31.6736C100.193 34.7246 101.539 39.1069 101.539 43.9885C101.539 44.4877 101.525 45.0009 101.497 45.4863" stroke="#282828" stroke-width="3" stroke-linecap="round" stroke-linejoin="round"/>
<path d="M126.21 71.1005V145.267C126.21 149.622 122.674 153.158 118.319 153.158H60.891C56.5364 153.158 53 149.622 53 145.267V70.8509C53 68.313 54.0262 65.8861 55.843 64.1109L72.1797 48.1764C73.9409 46.4568 76.2985 45.4999 78.7532 45.4999H98.5708C100.873 45.4999 103.106 46.3458 104.825 47.8713L123.048 64.0555C125.059 65.8445 126.21 68.4101 126.21 71.1005Z" stroke="#282828" stroke-width="3" stroke-linecap="round" stroke-linejoin="round"/>
<path d="M96.1855 56.7333C96.9206 55.9845 97.6001 55.1524 98.2103 54.2371C99.7497 51.935 100.887 49.1475 101.525 46.0687" stroke="#282828" stroke-width="3" stroke-linecap="round" stroke-linejoin="round"/>
<path d="M89.5977 72.0296C94.5532 72.0296 98.5704 68.0124 98.5704 63.0569C98.5704 58.1014 94.5532 54.0842 89.5977 54.0842C84.6422 54.0842 80.625 58.1014 80.625 63.0569C80.625 68.0124 84.6422 72.0296 89.5977 72.0296Z" stroke="#282828" stroke-width="3" stroke-linecap="round" stroke-linejoin="round"/>
<path d="M89.598 141.69C104.357 141.69 116.322 129.725 116.322 114.966C116.322 100.207 104.357 88.2419 89.598 88.2419C74.8387 88.2419 62.874 100.207 62.874 114.966C62.874 129.725 74.8387 141.69 89.598 141.69Z" stroke="#282828" stroke-width="3" stroke-linecap="round" stroke-linejoin="round"/>
<path d="M81.2495 121.553C81.2495 123.467 82.04 125.048 83.621 126.255C85.2019 127.475 87.2822 128.085 89.8755 128.085C92.2886 128.085 94.244 127.503 95.7279 126.352C97.2118 125.201 97.9606 123.675 97.9606 121.789C97.9606 120.569 97.711 119.529 97.2118 118.683C96.7125 117.837 95.9082 117.102 94.7987 116.478C93.6892 115.854 92.1915 115.313 90.2777 114.855C87.407 114.217 84.772 112.955 83.6487 111.97C82.5254 110.972 81.9707 109.599 81.9707 107.865C81.9707 106.132 82.6779 104.662 84.1064 103.525C85.5348 102.388 87.3931 101.819 89.6814 101.819C92.1638 101.819 94.1608 102.429 95.6585 103.663C97.1563 104.898 97.919 106.562 97.919 108.656" stroke="#0733BA" stroke-width="3" stroke-linecap="round" stroke-linejoin="round"/>
<path d="M89.5981 132.869V130.415V128.099" stroke="#0733BA" stroke-width="3" stroke-linecap="round" stroke-linejoin="round"/>
<path d="M89.5981 101.818V97.0477" stroke="#0733BA" stroke-width="3" stroke-linecap="round" stroke-linejoin="round"/>
</svg>
