<svg width="90" height="87" viewBox="0 0 90 87" fill="none" xmlns="http://www.w3.org/2000/svg">
<path d="M13.6105 69.0493H7.80697V57.4112H22.9933V72.2666L19.8692 69.0597H17.1691C16.2484 69.0597 15.4933 69.8149 15.4933 70.7356V78.7322C15.4933 79.5185 14.8519 80.1598 14.0657 80.1598H2.18967C1.53794 80.1598 1 79.6323 1 78.9702V53.325C1 52.5491 1.63104 51.9077 2.41726 51.9077H14.0657C14.8622 51.9077 15.5036 52.5491 15.5036 53.3457V55.5388" stroke="#0733BA" stroke-width="2" stroke-linecap="round" stroke-linejoin="round"/>
<path d="M5.71729 47.8422C5.71729 34.9316 12.2346 23.5418 22.1657 16.7969" stroke="#282828" stroke-width="2" stroke-linecap="round" stroke-linejoin="round"/>
<path d="M57.5765 82.9322C53.4385 84.5047 48.9592 85.3633 44.2729 85.3633C35.5728 85.3633 27.5555 82.3943 21.1934 77.4287" stroke="#282828" stroke-width="2" stroke-linecap="round" stroke-linejoin="round"/>
<path d="M61.4868 15.0586C72.3283 21.1001 79.8594 32.3657 80.6767 45.4521C80.687 45.6901 80.7077 45.928 80.7181 46.1659C80.7388 46.7246 80.7594 47.2832 80.7594 47.8522" stroke="#282828" stroke-width="2" stroke-linecap="round" stroke-linejoin="round"/>
<path d="M27.9175 1H57.1833V22.4865H27.9175V3.26555L42.5452 12.8243L55.5488 2.96555" stroke="#0733BA" stroke-width="2" stroke-linecap="round" stroke-linejoin="round"/>
<path d="M80.2829 73.6432C79.8079 74.0232 78.7722 74.6313 77.0906 74.4223C75.4754 74.2323 72.9481 73.2252 70.0693 69.5198C65.4139 63.5151 67.0005 59.6672 68.4922 58.4701C69.1478 57.9476 69.7273 57.7005 70.1739 57.7576C70.5634 57.8051 70.8389 58.0806 71.0099 58.5936L72.0646 61.805C72.1976 62.204 72.1121 62.4415 71.7415 62.6696L70.9624 63.2111C70.3354 63.6577 70.2309 64.2752 70.6584 65.0638C70.8769 65.4724 71.485 66.546 72.3686 67.6766C73.2427 68.8072 74.1263 69.6528 74.4683 69.9663C75.1334 70.5744 75.7509 70.6124 76.3115 70.0898L77.0241 69.4438C77.2711 69.1967 77.4516 69.1872 77.5656 69.1967C77.6701 69.2062 77.7936 69.2537 77.9172 69.3393L80.7485 71.1349C81.138 71.382 81.3375 71.667 81.3565 71.9995C81.385 72.4841 80.9955 73.0731 80.2734 73.6527L80.2829 73.6432Z" stroke="#0733BA" stroke-width="2" stroke-miterlimit="10" stroke-linecap="round"/>
<path d="M61.9935 77.2251L61.5944 80.4079L67.4755 79.1443C69.5468 80.2844 71.922 80.94 74.4588 80.94C82.4491 80.94 88.9288 74.4603 88.9288 66.47C88.9288 58.4797 82.4491 52 74.4588 52C66.4684 52 59.9888 58.4797 59.9888 66.47C59.9888 69.3868 60.8629 72.1041 62.3545 74.3748L62.003 77.2251H61.9935Z" stroke="#0733BA" stroke-width="2" stroke-linecap="round" stroke-linejoin="round"/>
</svg>
