<svg width="69" height="69" viewBox="0 0 69 69" fill="none" xmlns="http://www.w3.org/2000/svg">
<circle cx="34.5" cy="34.5" r="34.5" fill="white" fill-opacity="0.8"/>
<path d="M34.1084 43.7559V47.0977" stroke="#282828" stroke-width="2" stroke-linecap="round" stroke-linejoin="round"/>
<path d="M34.1084 23.7871V27.2623" stroke="#282828" stroke-width="2" stroke-linecap="round" stroke-linejoin="round"/>
<path d="M28.6035 39.507C28.6035 40.691 29.1263 41.6546 30.1668 42.403C31.2073 43.1513 32.581 43.5306 34.2827 43.5306C35.8716 43.5306 37.1581 43.1769 38.1371 42.4645C39.1212 41.7571 39.6081 40.8191 39.6081 39.6556C39.6081 38.9022 39.4441 38.2615 39.1161 37.7387C38.788 37.2159 38.2601 36.7648 37.5323 36.3804C36.8044 35.996 35.8101 35.6679 34.5594 35.386C32.6681 34.9965 30.9357 34.2174 30.1976 33.6075C29.4595 32.9924 29.0904 32.1518 29.0904 31.0754C29.0904 29.999 29.562 29.1021 30.5 28.3999C31.438 27.6977 32.663 27.3491 34.1699 27.3491C35.805 27.3491 37.1171 27.7284 38.1115 28.487C39.1007 29.2456 39.5979 30.2707 39.5979 31.5623" stroke="#282828" stroke-width="2" stroke-linecap="round" stroke-linejoin="round"/>
<path d="M45.7236 20.6244L46.9589 16.8366C47.1485 16.0524 46.841 15.2118 46.1234 14.8786L41.8179 12.8848C41.1004 12.5516 40.2598 12.8591 39.7831 13.5101L37.6867 16.8981C35.6877 16.3189 33.9861 16.2266 32.3612 16.3497L30.4904 12.8643C30.27 12.5875 30.0496 12.3107 29.7626 12.1774C29.332 11.9775 28.8348 11.9211 28.5581 12.1415L24.6472 13.5767C23.9399 13.8381 23.5145 14.5557 23.6324 15.2989C23.7759 16.2113 23.9604 17.6105 24.0988 19.4916L20.3776 22.9975L17.1331 21.9365C15.8415 21.5162 14.4473 22.1826 13.9604 23.4486L12.638 26.9032C12.3049 27.6208 12.6124 28.4614 13.2633 28.9381L16.6513 31.0344C16.4156 32.6695 16.3233 34.3712 16.3797 36.1395L12.8943 38.0104C12.1972 38.3845 11.7974 39.2456 12.105 40.0862L13.5094 44.5762C13.8169 45.4168 14.5345 45.75 15.3084 45.586L19.2449 44.6224C20.2034 45.9396 21.3054 47.3235 22.7508 48.3435L21.5155 52.1313C21.3259 52.9155 21.6334 53.7561 22.351 54.0893L26.6565 56.0832C27.3741 56.4163 28.2147 56.1088 28.6913 55.4578L30.7877 52.0698C32.4228 52.3056 34.1244 52.3979 35.8928 52.3415L37.697 55.9704C38.0711 56.6675 38.9322 57.0673 39.6293 56.6931L44.1091 54.935C44.9497 54.6275 45.2828 53.9099 45.1188 53.1359L44.2423 49.5685L47.533 45.873L51.3156 47.1288C52.0999 47.3235 52.9405 47.0211 53.2787 46.3035L55.2982 42.0083C55.6365 41.2907 55.3341 40.4501 54.6831 39.9683L51.3054 37.8566C51.5514 36.2215 51.6488 34.5198 51.6078 32.7515L55.1034 30.896C55.8005 30.527 56.2054 29.6659 55.903 28.8253L54.5191 24.3302C54.2167 23.4896 53.4991 23.1513 52.7252 23.3102L48.7836 24.2533L45.7134 20.6244H45.7236Z" stroke="#282828" stroke-width="2" stroke-linecap="round" stroke-linejoin="round"/>
</svg>
