<svg width="69" height="69" viewBox="0 0 69 69" fill="none" xmlns="http://www.w3.org/2000/svg">
<circle cx="34.5" cy="34.5" r="34.5" fill="white" fill-opacity="0.8"/>
<path d="M28.1851 40.1183C28.1851 41.4981 28.7938 42.6209 29.9977 43.4867C31.2152 44.3524 32.7979 44.7988 34.7865 44.7988C36.6397 44.7988 38.1278 44.393 39.2641 43.5678C40.4004 42.7426 40.9685 41.6604 40.9685 40.3077C40.9685 39.4284 40.7792 38.6844 40.4004 38.0757C40.0216 37.4669 39.4129 36.9394 38.5607 36.4929C37.7084 36.0465 36.5586 35.6678 35.1111 35.3296C32.9197 34.8696 30.9041 33.9768 30.0383 33.2599C29.1861 32.5429 28.7532 31.5689 28.7532 30.3244C28.7532 29.0799 29.2943 28.0383 30.39 27.2131C31.4858 26.4014 32.9062 25.9956 34.6512 25.9956C36.5451 25.9956 38.0737 26.442 39.237 27.3213C40.3869 28.2006 40.9685 29.391 40.9685 30.8926" stroke="#282828" stroke-width="2" stroke-linecap="round" stroke-linejoin="round"/>
<path d="M34.5698 49.7765V47.6256V44.8931" stroke="#282828" stroke-width="2" stroke-linecap="round" stroke-linejoin="round"/>
<path d="M34.5698 25.8864V23.7761V20.4077" stroke="#282828" stroke-width="2" stroke-linecap="round" stroke-linejoin="round"/>
<path d="M15.9289 46.6115C15.5772 46.0569 15.2661 45.4752 14.9685 44.8935C13.494 41.9445 12.6553 38.6168 12.6553 35.0861C12.6688 22.9925 22.4762 13.1851 34.5698 13.1851C39.0745 13.1851 43.268 14.5513 46.7446 16.8781" stroke="#282828" stroke-width="2" stroke-linecap="round" stroke-linejoin="round"/>
<path d="M50.3158 19.8398C54.1305 23.7899 56.4843 29.1603 56.4843 35.0853C56.4843 47.1925 46.6769 56.9999 34.5698 56.9999C29.6999 56.9999 25.2087 55.4172 21.5698 52.7252C20.907 52.2247 20.2577 51.6971 19.6489 51.129" stroke="#282828" stroke-width="2" stroke-linecap="round" stroke-linejoin="round"/>
<path d="M46.1085 11.4399L47.3395 17.3244L41.4551 18.5419" stroke="#282828" stroke-width="2" stroke-linecap="round" stroke-linejoin="round"/>
<path d="M20.1089 56.4729L18.8779 50.5884L24.7624 49.3574" stroke="#282828" stroke-width="2" stroke-linecap="round" stroke-linejoin="round"/>
</svg>
