<svg width="90" height="83" viewBox="0 0 90 83" fill="none" xmlns="http://www.w3.org/2000/svg">
<path d="M35.4034 43.8123C45.81 43.8123 51.0075 32.607 51.0075 21.008C51.0075 12.604 49.8036 7.80005 46.2036 4.60513C43.0087 1.80378 40.3578 0.924025 34.9982 1.00506C27.7981 1.10924 19.0005 4.19997 19.0005 18.2067C19.0005 25.048 21.223 30.9169 23.735 35.3041" stroke="#282828" stroke-width="2" stroke-linecap="round" stroke-linejoin="round"/>
<path d="M46.9095 68.2602L44.2124 68.2139H5.90813C3.1994 68.2139 1 66.0145 1 63.3058V62.6691C1.57879 53.0149 10.2027 44.2173 22.2068 42.6083L22.9014 42.5041C25.8879 42.0526 28.7934 42.8398 31.7568 43.4186C33.5858 43.7774 33.4237 43.8122 35.4148 43.8122" stroke="#282828" stroke-width="2" stroke-linecap="round" stroke-linejoin="round"/>
<path d="M47.3267 73.3656H67.9547H80.688L88.2933 81.1677V44.6113H47.3267V73.3656Z" stroke="#0733BA" stroke-width="2" stroke-linecap="round" stroke-linejoin="round"/>
<path d="M77.6087 54.8901H56.8765" stroke="#0733BA" stroke-width="2" stroke-linecap="round" stroke-linejoin="round"/>
<path d="M77.6087 62.0791H56.8765" stroke="#0733BA" stroke-width="2" stroke-linecap="round" stroke-linejoin="round"/>
</svg>
