<svg width="180" height="180" viewBox="0 0 180 180" fill="none" xmlns="http://www.w3.org/2000/svg">
<circle cx="90" cy="90" r="90" fill="white" fill-opacity="0.8"/>
<path d="M105.37 137.992C99.6017 140.146 93.3764 141.326 86.8561 141.326C57.6621 141.326 33.9854 117.649 33.9854 88.4553C33.9854 59.2613 57.6621 35.5698 86.8708 35.5698C116.08 35.5698 139.756 59.2466 139.756 88.4553C139.756 92.4825 139.299 96.4065 138.458 100.168" stroke="#282828" stroke-width="3" stroke-linecap="round" stroke-linejoin="round"/>
<path d="M71.4551 99.9174C71.4551 103.148 72.8713 105.789 75.7331 107.839C78.5802 109.89 82.3272 110.922 86.9888 110.922C91.3406 110.922 94.8515 109.949 97.5364 108.016C100.221 106.084 101.564 103.517 101.564 100.33C101.564 98.2652 101.121 96.5245 100.221 95.0935C99.3214 93.6626 97.8757 92.4234 95.8842 91.3908C93.8927 90.3434 91.1783 89.4436 87.7559 88.6765C82.5927 87.6143 77.8426 85.4901 75.8364 83.8084C73.8154 82.1266 72.8123 79.8253 72.8123 76.8897C72.8123 73.9541 74.0957 71.4905 76.6625 69.5876C79.2293 67.6698 82.578 66.7109 86.6938 66.7109C91.1636 66.7109 94.763 67.7436 97.4626 69.8236C100.177 71.9036 101.519 74.7064 101.519 78.2321" stroke="#282828" stroke-width="3" stroke-linecap="round" stroke-linejoin="round"/>
<path d="M86.5024 120.511V117.561V111.483" stroke="#282828" stroke-width="3" stroke-linecap="round" stroke-linejoin="round"/>
<path d="M86.5024 65.4126V61.4739V56.355" stroke="#282828" stroke-width="3" stroke-linecap="round" stroke-linejoin="round"/>
<path d="M128.132 150C123.057 137.594 116.625 131.162 104.219 126.087C116.625 121.013 123.072 114.581 128.132 102.175C133.206 114.581 139.638 121.027 152.044 126.087C139.638 131.162 133.206 137.594 128.132 150Z" stroke="#0733BA" stroke-width="3" stroke-linecap="round" stroke-linejoin="round"/>
</svg>
