<svg width="180" height="180" viewBox="0 0 180 180" fill="none" xmlns="http://www.w3.org/2000/svg">
<circle cx="90" cy="90" r="90" fill="white" fill-opacity="0.8"/>
<path d="M43.3753 103.724L47.5844 113.872L44.2171 117.24C40.9901 120.467 40.9901 125.798 44.2171 129.025L51.1855 135.993C54.4124 139.22 59.7439 139.22 62.9709 135.993L66.3382 132.626L76.4867 136.835V141.605C76.4867 146.189 80.2281 149.93 84.8114 149.93H94.6793C99.2626 149.93 103.004 146.189 103.004 141.605V136.648L113.153 132.439L116.52 135.993C119.747 139.22 125.078 139.22 128.305 135.993L135.274 129.025C138.501 125.798 138.501 120.467 135.274 117.24L131.766 113.592L135.975 103.443L140.886 103.724C145.469 103.724 149.21 99.9823 149.21 95.3991V85.5311C149.21 80.9479 145.469 77.2065 140.886 77.2065L135.788 77.0194L131.579 66.8709L135.274 63.6907C138.501 60.4637 138.501 55.1322 135.274 51.9052L128.305 44.9369C125.078 41.7099 119.747 41.7099 116.52 44.9369L113.293 48.538L103.144 44.3289L103.004 39.3248C103.004 34.7415 99.2626 31.0001 94.6793 31.0001H84.8114C80.2281 31.0001 76.4867 34.7415 76.4867 39.3248V44.095L66.3382 48.3041L62.9709 44.9369C59.7439 41.7099 54.4124 41.7099 51.1855 44.9369L44.2171 51.9052C40.9901 55.1322 40.9901 60.4637 44.2171 63.6907L47.5844 67.0579L43.3753 77.2065" stroke="#282828" stroke-width="3" stroke-linecap="round" stroke-linejoin="round"/>
<path d="M70.6411 64.7189C75.9726 60.7437 82.5668 58.4053 89.7223 58.4053C107.4 58.4053 121.758 72.7629 121.758 90.4411C121.758 108.119 107.4 122.477 89.7223 122.477C80.93 122.477 72.9795 118.969 67.2271 113.217" stroke="#282828" stroke-width="3" stroke-linecap="round" stroke-linejoin="round"/>
<path d="M98.8887 90.4412H30" stroke="#0733BA" stroke-width="3" stroke-linecap="round" stroke-linejoin="round"/>
<path d="M82.0996 108.727L99.7778 90.0663L82.0996 72.1543" stroke="#0733BA" stroke-width="3" stroke-linecap="round" stroke-linejoin="round"/>
</svg>
