<svg width="569" height="524" viewBox="0 0 569 524" fill="none" xmlns="http://www.w3.org/2000/svg">
<g filter="url(#filter0_n_389_184)">
<rect x="569" y="524" width="569" height="524" rx="21" transform="rotate(-180 569 524)" fill="#EBF7FF"/>
</g>
<path d="M488.05 92.13L484.5 88.59L493.02 80.07L484.5 71.55L488.05 68L500.12 80.07L488.05 92.14V92.13Z" stroke="#0733BA" stroke-width="0.75" stroke-miterlimit="10"/>
<path opacity="0.5" d="M474.84 68.71L472 71.55L480.52 80.07L472 88.59L474.84 91.43L483.36 82.91L486.2 80.07L474.84 68.71Z" fill="#0733BA"/>
<path d="M313.253 336.501C313.253 336.637 313.236 336.769 313.204 336.894L310.682 334.843H311.596C312.51 334.843 313.251 335.583 313.251 336.499L313.253 336.501Z" fill="#3D3A3B"/>
<path d="M482.802 347.768L482.712 380.828L281.292 497.878L281.392 464.818L482.802 347.768Z" fill="#5082E3" fill-opacity="0.3"/>
<path d="M281.392 464.818L281.292 497.878L78.5615 380.828L78.6515 347.768L281.392 464.818Z" fill="#5082E3" fill-opacity="0.3"/>
<g style="mix-blend-mode:overlay">
<path d="M482.801 347.768L281.391 464.818L78.6514 347.768L280.071 230.718L482.801 347.768Z" fill="#5082E3"/>
</g>
<path d="M482.102 314.708L482.002 347.768L280.592 464.818L280.682 431.758L482.102 314.708Z" fill="#759EEC" fill-opacity="0.8"/>
<path d="M280.682 431.758L280.592 464.818L77.8516 347.768L77.9516 314.708L280.682 431.758Z" fill="#759EEC" fill-opacity="0.8"/>
<path d="M482.101 314.708L280.681 431.758L77.9512 314.708L279.361 197.658L482.101 314.708Z" fill="#1D55BE" fill-opacity="0.8"/>
<path d="M83.642 103.328C94.402 89.508 110.022 77.098 129.962 66.798C210.742 25.048 338.722 31.008 415.262 80.088C452.642 104.058 472.412 134.628 470.942 166.168C469.472 197.708 446.942 226.308 407.492 246.698C403.882 248.558 400.182 250.328 396.392 252.008C357.782 269.078 310.302 276.298 263.252 274.108C237.422 272.908 211.722 268.858 187.702 262.048C163.672 255.238 141.322 245.668 122.192 233.398C84.812 209.428 65.042 178.858 66.512 147.318C67.122 134.278 71.322 121.748 78.832 110.088" stroke="#759EEC" stroke-opacity="0.4" stroke-width="2" stroke-miterlimit="10"/>
<path d="M66.4316 107.138C78.7816 105.678 79.9716 104.488 81.4316 92.1382C82.8916 104.488 84.0816 105.678 96.4316 107.138C84.0816 108.598 82.8916 109.788 81.4316 122.138C79.9716 109.788 78.7816 108.598 66.4316 107.138Z" fill="#0733BA"/>
<path d="M490.882 261.028C480.632 283.548 459.552 303.628 429.232 319.238C385.512 341.748 329.022 351.388 273.092 348.788C217.172 346.178 161.812 331.328 120.382 304.848C79.9116 278.978 58.5016 245.988 60.0816 211.958C61.6716 177.928 86.0616 147.078 128.752 125.088C134.08 122.342 139.597 119.793 145.277 117.431M494.512 251.488C496.452 245.258 497.592 238.868 497.892 232.368C499.482 198.338 478.072 165.348 437.602 139.488C410.899 122.422 378.419 110.186 343.726 102.945" stroke="#759EEC" stroke-opacity="0.4" stroke-width="2" stroke-miterlimit="10"/>
<path d="M479.271 257.068C491.551 255.618 492.731 254.438 494.181 242.158C495.631 254.438 496.811 255.618 509.091 257.068C496.811 258.518 495.631 259.698 494.181 271.978C492.731 259.698 491.551 258.518 479.271 257.068Z" fill="#5082E3"/>
<path d="M73.8789 442.221L74.063 439.328L81.3907 432L84.0998 434.709L76.772 442.043L73.8789 442.221Z" stroke="#306AD7" stroke-width="2" stroke-miterlimit="10"/>
<path d="M62.7086 456.106L59.9995 453.391L67.3273 446.063L70.2204 445.879L70.0363 448.773L62.7086 456.106Z" stroke="#306AD7" stroke-width="2" stroke-miterlimit="10"/>
<path d="M81.3907 456.106L74.063 448.773L73.8789 445.879L76.772 446.063L84.0998 453.391L81.3907 456.106Z" stroke="#306AD7" stroke-width="2" stroke-miterlimit="10"/>
<path d="M70.2204 442.221L67.3273 442.043L59.9995 434.709L62.7086 432L70.0363 439.328L70.2204 442.221Z" stroke="#306AD7" stroke-width="2" stroke-miterlimit="10"/>
<path d="M141.959 73.5731L204.732 37.0889C207.753 38.4152 210.737 39.5297 213.712 40.6074C214.495 40.893 215.296 41.2338 216.079 41.5009C219.414 42.6522 222.72 43.647 225.972 44.522C226.626 44.697 227.261 44.826 227.915 44.9918C230.467 45.6366 232.991 46.2076 235.487 46.6958C236.491 46.8892 237.495 47.0642 238.489 47.2392C240.626 47.6077 242.745 47.9209 244.827 48.1972C245.849 48.3261 246.881 48.4735 247.894 48.5748C250.233 48.8235 252.527 49.0077 254.793 49.1367C255.41 49.1735 256.055 49.238 256.662 49.2656C257.059 49.2841 257.427 49.2656 257.823 49.2841C262.834 49.4775 267.623 49.4038 272.155 49.1367C272.597 49.1091 273.058 49.1091 273.5 49.0814C275.324 48.9617 277.055 48.7683 278.796 48.5932C279.754 48.4919 280.767 48.4275 281.698 48.3077C283.761 48.0498 285.704 47.7458 287.62 47.4327C288.136 47.3498 288.698 47.2853 289.204 47.1932C291.959 46.7142 294.492 46.18 296.896 45.6273C297.632 45.4616 298.314 45.2865 299.023 45.1115C300.644 44.7155 302.201 44.3102 303.629 43.9049C304.384 43.6931 305.158 43.472 305.867 43.2602C306.447 43.0851 307.009 42.9101 307.553 42.7443C308.4 42.4772 309.192 42.2193 309.929 41.9614C310.39 41.8048 310.868 41.6482 311.283 41.5009C312.001 41.243 312.637 41.0127 313.226 40.7916C313.521 40.6811 313.853 40.5614 314.12 40.46C314.82 40.1929 315.409 39.9534 315.87 39.76C315.916 39.7416 316.008 39.7048 316.054 39.6863C316.57 39.4745 316.929 39.3179 317.086 39.2442L254.304 75.7285C254.139 75.8022 253.798 75.9495 253.282 76.1706H253.273C253.227 76.189 253.153 76.2167 253.098 76.2443C252.628 76.4377 252.048 76.6772 251.339 76.9535C251.081 77.0548 250.768 77.1654 250.482 77.2759C249.874 77.5062 249.248 77.7365 248.511 77.9944C248.087 78.1417 247.636 78.2983 247.166 78.4549C246.42 78.7128 245.637 78.9615 244.78 79.2378C244.237 79.4128 243.684 79.5786 243.095 79.7536C242.68 79.8826 242.321 80.0023 241.879 80.1313C241.575 80.2234 241.179 80.3063 240.866 80.3984C239.429 80.8037 237.891 81.1997 236.251 81.605C235.542 81.78 234.879 81.955 234.123 82.1208C231.719 82.6735 229.186 83.2077 226.432 83.6867C226.405 83.6867 226.386 83.6959 226.368 83.7051C225.88 83.788 225.318 83.8525 224.82 83.9354C222.914 84.2485 220.98 84.5525 218.926 84.8012C217.995 84.9117 216.991 84.9854 216.024 85.0867C214.283 85.2709 212.561 85.4552 210.728 85.5749C210.553 85.5841 210.387 85.6117 210.212 85.621C209.954 85.6394 209.65 85.621 209.392 85.621C204.851 85.8881 200.071 85.9618 195.06 85.7683C194.793 85.7591 194.572 85.7868 194.305 85.7683C194.176 85.7683 194.029 85.7499 193.9 85.7407C193.282 85.7131 192.647 85.6486 192.03 85.6117C189.764 85.4828 187.47 85.2986 185.131 85.0499C184.118 84.9394 183.095 84.8012 182.064 84.6722C180.921 84.5249 179.807 84.4235 178.646 84.2485C177.688 84.1012 176.703 83.8893 175.736 83.7235C174.732 83.5485 173.728 83.3735 172.715 83.1801C170.237 82.6919 167.722 82.13 165.18 81.4853C164.517 81.3195 163.872 81.1905 163.209 81.0155C163.034 80.9695 162.868 80.9418 162.693 80.8866C159.608 80.0576 156.485 79.0812 153.326 77.9944C152.534 77.718 151.723 77.3772 150.922 77.0917C148.877 76.3456 146.832 75.6272 144.769 74.7705C143.848 74.3837 142.917 73.9876 141.987 73.5823C141.987 73.5823 141.987 73.5823 141.978 73.5823L141.959 73.5731Z" fill="#447BE7"/>
<path d="M380.944 327.71C377.37 330.4 373.622 332.979 369.56 335.346L306.778 371.831C310.85 369.463 314.598 366.884 318.163 364.195C318.66 363.826 319.176 363.467 319.664 363.089C322.999 360.492 326.084 357.747 329.004 354.901C329.538 354.376 330.063 353.86 330.588 353.326C333.407 350.452 336.05 347.486 338.491 344.41C338.887 343.912 339.256 343.406 339.634 342.908C342.102 339.694 344.423 336.405 346.514 333.016C346.606 332.868 346.689 332.712 346.781 332.565C348.844 329.193 350.705 325.739 352.418 322.248C352.63 321.815 352.86 321.392 353.072 320.95C354.721 317.505 356.185 314.014 357.53 310.504C357.77 309.878 358.009 309.252 358.249 308.616C359.52 305.144 360.671 301.662 361.684 298.162C361.859 297.563 362.016 296.965 362.182 296.366C363.177 292.783 364.079 289.191 364.825 285.635C364.881 285.35 364.936 285.064 364.991 284.788C365.719 281.251 366.336 277.741 366.852 274.269C366.907 273.91 366.971 273.55 367.017 273.2C367.515 269.719 367.902 266.302 368.215 262.94C368.27 262.359 368.325 261.788 368.371 261.208C368.648 257.956 368.86 254.76 368.989 251.665C369.016 251.104 369.035 250.551 369.053 249.998C369.164 246.885 369.228 243.836 369.228 240.926C369.228 240.603 369.228 240.299 369.228 239.977C369.219 237.075 369.154 234.275 369.053 231.623C369.053 231.438 369.044 231.236 369.035 231.052C368.924 228.353 368.777 225.838 368.611 223.453C368.583 223.084 368.565 222.706 368.537 222.356C368.371 220.1 368.178 218 367.985 216.084C367.948 215.752 367.92 215.43 367.883 215.117C367.69 213.256 367.487 211.534 367.294 210.06C367.238 209.609 367.183 209.213 367.128 208.798C367.073 208.384 367.017 207.932 366.962 207.555C366.916 207.214 366.87 206.937 366.824 206.633C366.769 206.237 366.704 205.823 366.649 205.482C366.631 205.335 366.612 205.233 366.585 205.095C366.437 204.165 366.317 203.456 366.253 203.087L429.034 166.603C429.071 166.824 429.126 167.146 429.191 167.561C429.2 167.625 429.218 167.718 429.228 167.782C429.292 168.15 429.357 168.556 429.43 169.044C429.467 169.265 429.504 169.551 429.541 169.799C429.605 170.214 429.661 170.619 429.734 171.107C429.78 171.402 429.817 171.752 429.863 172.074C429.928 172.516 429.983 172.922 430.047 173.41C430.047 173.465 430.066 173.539 430.066 173.594C430.25 175.059 430.453 176.735 430.646 178.577C430.683 178.927 430.72 179.259 430.757 179.627C430.95 181.534 431.134 183.606 431.3 185.845C431.328 186.222 431.355 186.6 431.383 186.987C431.549 189.363 431.696 191.859 431.807 194.54C431.807 194.751 431.816 194.973 431.825 195.184C431.926 197.819 431.982 200.591 432 203.474C432 203.806 432 204.11 432 204.441C432 207.352 431.936 210.392 431.825 213.514C431.807 214.076 431.788 214.619 431.761 215.181C431.622 218.285 431.42 221.463 431.144 224.724C431.097 225.304 431.033 225.884 430.978 226.474C430.665 229.836 430.278 233.253 429.78 236.725C429.725 237.085 429.67 237.444 429.615 237.794C429.099 241.266 428.482 244.776 427.754 248.313C427.699 248.598 427.653 248.875 427.588 249.16C426.842 252.725 425.939 256.299 424.945 259.882C424.779 260.489 424.613 261.088 424.438 261.696C423.425 265.187 422.283 268.669 421.012 272.141C420.781 272.777 420.542 273.403 420.293 274.029C418.948 277.548 417.484 281.03 415.835 284.475C415.623 284.907 415.393 285.34 415.181 285.773C413.468 289.264 411.607 292.709 409.553 296.071C409.461 296.228 409.378 296.393 409.277 296.55C407.186 299.93 404.865 303.219 402.396 306.433C402.01 306.931 401.641 307.437 401.254 307.935C398.813 311.011 396.17 313.977 393.351 316.851C392.836 317.376 392.301 317.901 391.767 318.426C388.856 321.272 385.762 324.017 382.427 326.614C381.939 326.992 381.423 327.351 380.926 327.72L380.944 327.71Z" fill="#447BE7"/>
<path d="M264.832 91.7921C264.335 91.0645 263.929 90.4565 263.469 89.7749C262.566 88.4394 261.682 87.1314 260.899 85.9524C260.429 85.2432 260.042 84.6537 259.619 84.0089C258.946 82.9865 258.311 82.0286 257.758 81.172C257.417 80.647 257.159 80.2417 256.865 79.7811C256.625 79.4127 256.321 78.9429 256.119 78.6206C255.861 78.2153 255.686 77.9482 255.483 77.6166C255.363 77.4324 255.29 77.3034 255.179 77.1468C254.755 76.4744 254.424 75.9402 254.276 75.7099L317.058 39.2349C317.196 39.4467 317.537 39.9902 317.905 40.5797C318.025 40.7639 318.181 41.0126 318.32 41.2336C318.66 41.7679 319.121 42.4863 319.581 43.2048C319.895 43.6837 320.217 44.1903 320.576 44.7522C321.092 45.5535 321.718 46.5022 322.345 47.451C322.778 48.1141 323.192 48.7497 323.68 49.4774C324.436 50.6103 325.301 51.8998 326.176 53.1893C326.665 53.9078 327.107 54.571 327.632 55.3447C329.069 57.454 330.625 59.7198 332.329 62.1331C332.339 62.1515 332.348 62.1607 332.357 62.1792C332.385 62.216 332.412 62.2621 332.44 62.2989C334.65 65.449 337.147 68.9215 339.762 72.4953C340.499 73.5085 341.273 74.5494 342.047 75.5902C344.359 78.7127 346.809 81.9641 349.369 85.2984C350.014 86.1458 350.622 86.9564 351.285 87.813C354.141 91.4882 357.134 95.2554 360.257 99.0871C360.828 99.7964 361.454 100.515 362.044 101.224C364.613 104.347 367.257 107.497 369.993 110.656C371.144 111.992 372.332 113.327 373.502 114.654C375.749 117.205 378.034 119.756 380.373 122.299C381.681 123.717 382.998 125.135 384.325 126.545C386.738 129.105 389.206 131.629 391.693 134.144C393.084 135.553 394.466 136.971 395.884 138.353C396.953 139.403 398.04 140.426 399.127 141.457C401.227 143.465 403.345 145.436 405.491 147.38C406.661 148.439 407.831 149.489 409.001 150.521C411.239 152.492 413.505 154.398 415.78 156.277C416.839 157.152 417.88 158.046 418.939 158.893C422.273 161.564 425.626 164.153 429.025 166.584L366.244 203.069C362.845 200.637 359.492 198.049 356.158 195.378C355.099 194.53 354.058 193.637 352.999 192.771C350.714 190.883 348.448 188.976 346.21 186.996C345.04 185.964 343.88 184.923 342.719 183.873C340.573 181.921 338.445 179.949 336.336 177.932C335.249 176.901 334.171 175.878 333.094 174.828C332.606 174.349 332.099 173.889 331.611 173.41C330.69 172.498 329.815 171.54 328.903 170.619C326.407 168.104 323.947 165.58 321.534 163.02C320.199 161.601 318.891 160.201 317.583 158.774C315.234 156.222 312.95 153.671 310.693 151.11C309.956 150.281 309.173 149.443 308.446 148.614C308.013 148.117 307.635 147.638 307.202 147.14C304.466 143.963 301.814 140.812 299.235 137.681C298.654 136.971 298.037 136.253 297.457 135.553C294.325 131.721 291.341 127.954 288.486 124.279C288.329 124.076 288.145 123.855 287.988 123.653C287.482 122.999 287.067 122.418 286.57 121.774C284 118.43 281.559 115.197 279.247 112.065C278.464 111.015 277.709 109.993 276.963 108.97C274.347 105.387 271.86 101.933 269.64 98.774C269.622 98.7463 269.594 98.7095 269.576 98.6818C269.576 98.6818 269.566 98.6634 269.557 98.6542C269.548 98.645 269.539 98.6266 269.53 98.6174C267.816 96.1765 266.26 93.9198 264.814 91.7921H264.832Z" fill="#5082E3"/>
<path d="M254.285 75.7189C251.614 76.8979 200.788 99.354 141.958 73.5728C140.485 80.2322 112.53 206.734 253.391 389.331C394.778 369.702 367.68 211.404 366.252 203.078C307.413 160.929 256.938 79.9835 254.285 75.7281V75.7189Z" fill="#85AFFB"/>
<g style="mix-blend-mode:lighten">
<path d="M253.199 359.921C344.497 340.863 347.896 248.331 345.611 212.132C305.885 179.194 270.92 132.32 253.208 106.658C235.477 111.863 200.476 118.365 160.712 105.396C158.207 138.896 161.246 234.634 253.208 359.911L253.199 359.921Z" fill="#EBF7FF"/>
</g>
<path d="M251.35 273.053L243.586 277.564C243.632 277.538 243.677 277.512 243.723 277.479L251.486 272.968C251.441 272.994 251.395 273.027 251.35 273.053Z" fill="white"/>
<path d="M219.207 217.854L226.971 213.343L247.335 254.703L239.571 259.214L219.207 217.854Z" fill="#85AFFB"/>
<path d="M209.899 211.902L217.663 207.391C217.839 207.293 218.021 207.209 218.223 207.137C219.37 206.752 220.739 207.033 222.102 207.815C223.933 208.871 225.752 210.846 226.978 213.336L219.214 217.847C217.988 215.363 216.176 213.388 214.338 212.326C212.982 211.543 211.613 211.263 210.46 211.648C210.264 211.713 210.075 211.798 209.899 211.902Z" fill="#85AFFB"/>
<path d="M307.559 235.499L315.323 230.982L251.487 272.974L243.723 277.485L307.559 235.499Z" fill="white"/>
<path d="M298.59 220.396L306.353 215.885C307.572 215.175 309.176 215.39 310.786 216.322L303.022 220.833C301.412 219.9 299.802 219.692 298.59 220.396Z" fill="#85AFFB"/>
<path d="M303.029 220.833L310.792 216.322C312.311 217.195 313.83 218.708 315.023 220.683C317.539 224.828 317.669 229.444 315.323 230.989L307.559 235.499C309.906 233.954 309.776 229.339 307.259 225.194C306.066 223.218 304.548 221.713 303.029 220.833Z" fill="#85AFFB"/>
<path d="M303.029 220.832C304.548 221.706 306.067 223.218 307.26 225.193C309.776 229.339 309.906 233.954 307.559 235.499L243.723 277.485C242.537 278.261 240.881 278.137 239.154 277.139C237.1 275.868 235.406 273.906 234.284 271.618L209.429 221.132C207.291 216.804 207.754 212.554 210.459 211.648C211.606 211.263 212.975 211.543 214.338 212.326C216.169 213.382 217.988 215.357 219.214 217.847L239.577 259.207L298.46 220.474C299.692 219.665 301.36 219.854 303.036 220.826L303.029 220.832Z" fill="#3B65E8"/>
<defs>
<filter id="filter0_n_389_184" x="0" y="0" width="569" height="524" filterUnits="userSpaceOnUse" color-interpolation-filters="sRGB">
<feFlood flood-opacity="0" result="BackgroundImageFix"/>
<feBlend mode="normal" in="SourceGraphic" in2="BackgroundImageFix" result="shape"/>
<feTurbulence type="fractalNoise" baseFrequency="inf inf" stitchTiles="stitch" numOctaves="3" result="noise" seed="522" />
<feColorMatrix in="noise" type="luminanceToAlpha" result="alphaNoise" />
<feComponentTransfer in="alphaNoise" result="coloredNoise1">
<feFuncA type="discrete" tableValues="1 1 1 1 1 1 1 1 1 1 1 1 1 1 1 1 1 1 1 1 1 1 1 1 1 1 1 1 1 1 1 1 1 1 1 1 1 1 1 1 1 1 1 1 1 1 1 1 1 1 1 0 0 0 0 0 0 0 0 0 0 0 0 0 0 0 0 0 0 0 0 0 0 0 0 0 0 0 0 0 0 0 0 0 0 0 0 0 0 0 0 0 0 0 0 0 0 0 0 0 "/>
</feComponentTransfer>
<feComposite operator="in" in2="shape" in="coloredNoise1" result="noise1Clipped" />
<feFlood flood-color="rgba(0, 0, 0, 0.25)" result="color1Flood" />
<feComposite operator="in" in2="noise1Clipped" in="color1Flood" result="color1" />
<feMerge result="effect1_noise_389_184">
<feMergeNode in="shape" />
<feMergeNode in="color1" />
</feMerge>
</filter>
</defs>
</svg>
