<svg width="569" height="524" viewBox="0 0 569 524" fill="none" xmlns="http://www.w3.org/2000/svg">
<g filter="url(#filter0_n_389_87)">
<rect x="569" y="524" width="569" height="524" rx="21" transform="rotate(-180 569 524)" fill="#EBF7FF"/>
</g>
<path d="M326.253 330.501C326.253 330.637 326.236 330.769 326.204 330.894L323.682 328.843H324.596C325.51 328.843 326.251 329.583 326.251 330.499L326.253 330.501Z" fill="#3D3A3B"/>
<path d="M476.999 218.352L434.668 252.753L336.946 332.173L326.261 323.486L323.461 321.21L296.133 298.995C287.038 291.602 274.005 291.602 264.911 298.995L237.583 321.21L233.062 324.886L224.099 332.171L215.135 324.886L210.612 321.21L126.379 252.753L84.0469 218.352L126.377 180.509L186.288 126.954L190.402 123.279L203.947 111.17L257.151 63.6095L270.206 51.9382C276.082 46.6873 284.962 46.6873 290.837 51.9382L303.893 63.6095L357.097 111.17L434.666 180.511L476.997 218.353L476.999 218.352Z" fill="url(#paint0_linear_389_87)"/>
<rect x="129.936" y="114.917" width="301.931" height="225.338" fill="white"/>
<line x1="187.994" y1="163.165" x2="373.31" y2="163.165" stroke="#81A9FE" stroke-width="5" stroke-linecap="round"/>
<line x1="187.994" y1="198.627" x2="322.48" y2="198.627" stroke="#81A9FE" stroke-width="5" stroke-linecap="round"/>
<line x1="187.994" y1="234.09" x2="343.758" y2="234.09" stroke="#81A9FE" stroke-width="5" stroke-linecap="round"/>
<line x1="187.994" y1="269.553" x2="282.289" y2="269.553" stroke="#81A9FE" stroke-width="5" stroke-linecap="round"/>
<g filter="url(#filter1_d_389_87)">
<path d="M471.293 441.385C474.8 438.165 477 433.543 477 428.407V218.352L336.947 332.173L471.293 441.383V441.385Z" fill="#4379E3"/>
<path d="M478 428.406C478 433.834 475.674 438.721 471.97 442.122L470.293 443.661V441.857L336.316 332.948L335.361 332.173L336.316 331.396L476.369 217.575L478 216.25V428.406Z" stroke="white" stroke-width="2"/>
</g>
<g filter="url(#filter2_d_389_87)">
<path d="M84.0469 218.352V428.405C84.0469 433.541 86.2448 438.165 89.7533 441.383L224.099 332.173L84.0469 218.352Z" fill="#4379E3"/>
<path d="M84.6777 217.575L224.73 331.396L225.685 332.173L224.73 332.948L90.3838 442.159L89.7139 442.704L89.0771 442.12C85.3709 438.72 83.047 433.832 83.0469 428.405V216.25L84.6777 217.575Z" stroke="white" stroke-width="2"/>
</g>
<g filter="url(#filter3_d_389_87)">
<path d="M336.948 332.174L296.135 298.998C287.04 291.605 274.007 291.605 264.912 298.998L224.099 332.174L89.7529 441.385C92.8872 444.265 97.0691 446.023 101.66 446.023H459.387C463.978 446.023 468.159 444.265 471.294 441.385L336.948 332.174Z" fill="#4379E3"/>
<path d="M264.281 298.223C273.743 290.531 287.303 290.531 296.766 298.223L337.578 331.398L471.925 440.609L472.822 441.339L471.971 442.121C468.659 445.164 464.238 447.023 459.387 447.023H101.66C96.8091 447.023 92.3878 445.164 89.0762 442.121L88.2246 441.339L89.1221 440.609L223.469 331.398L264.281 298.223Z" stroke="white" stroke-width="2"/>
</g>
<path d="M490.711 261.53C511.685 261.53 528.687 244.527 528.687 223.554C528.687 202.581 511.685 185.579 490.711 185.579C469.738 185.579 452.736 202.581 452.736 223.554C452.736 244.527 469.738 261.53 490.711 261.53Z" fill="#0733BA"/>
<path opacity="0.95" d="M480.886 231.828C480.886 234.101 481.89 235.95 483.898 237.404C485.907 238.857 488.549 239.571 491.826 239.571C494.892 239.571 497.35 238.884 499.252 237.536C501.129 236.162 502.08 234.365 502.08 232.145C502.08 230.692 501.763 229.476 501.129 228.472C500.494 227.467 499.49 226.595 498.089 225.855C496.689 225.115 494.786 224.481 492.381 223.953C488.761 223.213 485.405 221.706 484.004 220.517C482.577 219.328 481.864 217.716 481.864 215.655C481.864 213.593 482.762 211.849 484.585 210.502C486.382 209.154 488.734 208.493 491.641 208.493C494.786 208.493 497.323 209.233 499.226 210.687C501.129 212.14 502.08 214.122 502.08 216.606" stroke="white" stroke-width="5" stroke-linecap="round" stroke-linejoin="round"/>
<path opacity="0.95" d="M491.482 247.814V244.22V239.728" stroke="white" stroke-width="5" stroke-linecap="round" stroke-linejoin="round"/>
<path opacity="0.95" d="M491.482 208.28V204.765V199.189" stroke="white" stroke-width="5" stroke-linecap="round" stroke-linejoin="round"/>
<path opacity="0.22" d="M480.188 258.543C484.22 260.248 488.466 261.23 492.838 261.471C492.134 261.51 491.425 261.529 490.711 261.529C469.738 261.529 452.736 244.527 452.736 223.554C452.736 202.581 469.738 185.579 490.711 185.579C491.425 185.579 492.134 185.598 492.838 185.637C488.466 185.878 484.22 186.859 480.188 188.564C475.665 190.478 471.605 193.215 468.118 196.701C464.632 200.188 461.894 204.249 459.981 208.771C458 213.455 456.995 218.429 456.995 223.554C456.995 228.679 458 233.652 459.981 238.337C461.894 242.859 464.632 246.92 468.118 250.407C471.605 253.893 475.665 256.631 480.188 258.543Z" fill="white"/>
<path d="M534.671 204.982C532.267 199.3 528.828 194.198 524.448 189.818C520.068 185.437 514.966 181.998 509.284 179.595C503.399 177.106 497.15 175.843 490.711 175.843C484.272 175.843 478.023 177.106 472.138 179.595C466.456 181.998 461.354 185.437 456.974 189.818C452.594 194.198 449.155 199.3 446.751 204.982C444.262 210.867 443 217.116 443 223.554C443 229.993 444.262 236.242 446.751 242.127C449.155 247.809 452.594 252.911 456.974 257.291C461.354 261.671 466.456 265.111 472.138 267.514C478.023 270.003 484.272 271.265 490.711 271.265C497.15 271.265 503.399 270.003 509.284 267.514C514.966 265.111 520.068 261.671 524.448 257.291C528.828 252.911 532.267 247.809 534.671 242.127C537.16 236.242 538.422 229.993 538.422 223.554C538.422 217.116 537.16 210.867 534.671 204.982ZM528.687 223.554C528.687 244.494 511.651 261.53 490.711 261.53C469.771 261.53 452.736 244.494 452.736 223.554C452.736 202.615 469.771 185.579 490.711 185.579C511.651 185.579 528.687 202.615 528.687 223.554Z" fill="#3167EE"/>
<path d="M115.417 48.8433H41.6963C37.9997 48.8433 35 51.843 35 55.5396V113.261C35 116.958 37.9997 119.958 41.6963 119.958H66.497C66.6031 120.2 66.7394 120.443 66.9667 120.655L77.1627 130.199C77.9505 130.926 79.1625 130.926 79.9503 130.199L90.1463 120.655C90.3735 120.443 90.5099 120.2 90.6159 119.958H115.417C119.113 119.958 122.113 116.958 122.113 113.261V55.5396C122.113 51.843 119.113 48.8433 115.417 48.8433Z" fill="url(#paint1_linear_389_87)"/>
<path d="M53.029 78.3405C52.9533 70.7806 59.0133 64.5994 66.5732 64.5236C71.6485 64.4782 76.0874 67.2052 78.4963 71.2805C80.8143 67.1597 85.2078 64.3418 90.2831 64.2964C97.8429 64.2206 104.024 70.2806 104.1 77.8405C104.161 84.1429 99.4034 89.7636 95.5098 94.2632C90.2679 100.323 79.3296 110.777 79.3296 110.777C79.3296 110.777 67.3004 100.55 61.9373 94.5965C57.7558 89.9454 53.1199 85.0065 53.0442 78.3405H53.029Z" fill="white"/>
<path d="M527.509 402.579H212.835C209.06 402.579 206 406.075 206 410.387V474.757C206 479.069 209.06 482.565 212.835 482.565H527.509C531.283 482.565 534.344 479.069 534.344 474.757V410.387C534.344 406.075 531.283 402.579 527.509 402.579Z" fill="url(#paint2_linear_389_87)"/>
<path d="M523.532 397.843H212.835C209.06 397.843 206 401.339 206 405.651V470.021C206 474.333 209.06 477.829 212.835 477.829H523.532C527.307 477.829 530.367 474.333 530.367 470.021V405.651C530.367 401.339 527.307 397.843 523.532 397.843Z" fill="white"/>
<line x1="245.837" y1="426.091" x2="460.465" y2="426.091" stroke="#B9CDF4" stroke-width="5" stroke-linecap="round"/>
<line x1="245.837" y1="453.545" x2="401.806" y2="453.545" stroke="#B9CDF4" stroke-width="5" stroke-linecap="round"/>
<path d="M90.9361 396.238L92.7144 397.672L94.9281 397.091C99.8637 395.785 105.053 398.107 107.394 402.644L108.446 404.676L110.697 405.039C115.741 405.856 119.533 410.083 119.824 415.182L119.951 417.451L121.856 418.703C126.138 421.515 127.88 426.904 126.066 431.677L125.267 433.818L126.501 435.741C129.259 440.042 128.679 445.685 125.068 449.314L123.471 450.929L123.816 453.179C124.596 458.223 121.747 463.141 116.993 464.992L114.87 465.826L114.271 468.022C112.928 472.957 108.338 476.296 103.239 476.042L100.952 475.933L99.5008 477.693C96.2709 481.649 90.7184 482.829 86.1457 480.524L84.1134 479.49L82.0811 480.524C77.5085 482.829 71.9741 481.649 68.7261 477.693L67.2744 475.933L64.9881 476.042C59.8892 476.278 55.2984 472.957 53.9557 468.022L53.3569 465.826L51.2338 464.992C46.4797 463.141 43.6309 458.223 44.4112 453.179L44.7559 450.929L43.1591 449.314C39.5663 445.685 38.9675 440.042 41.7256 435.741L42.9595 433.818L42.1611 431.677C40.3466 426.904 42.1067 421.497 46.3709 418.703L48.2761 417.451L48.4032 415.182C48.6935 410.083 52.4859 405.856 57.5303 405.039L59.7804 404.676L60.8328 402.644C63.1736 398.107 68.3632 395.785 73.2987 397.091L75.5125 397.672L77.2907 396.238C81.2827 393.045 86.9441 393.045 90.9361 396.238Z" fill="#0733BA"/>
<path d="M63.2461 453.487L104.981 422.187" stroke="white" stroke-width="3" stroke-miterlimit="10"/>
<path d="M72.4086 432.457C76.2969 432.457 79.449 429.305 79.449 425.417C79.449 421.529 76.2969 418.376 72.4086 418.376C68.5203 418.376 65.3682 421.529 65.3682 425.417C65.3682 429.305 68.5203 432.457 72.4086 432.457Z" stroke="white" stroke-width="3" stroke-miterlimit="10"/>
<path d="M97.0146 457.08C100.903 457.08 104.055 453.928 104.055 450.039C104.055 446.151 100.903 442.999 97.0146 442.999C93.1262 442.999 89.9741 446.151 89.9741 450.039C89.9741 453.928 93.1262 457.08 97.0146 457.08Z" stroke="white" stroke-width="3" stroke-miterlimit="10"/>
<defs>
<filter id="filter0_n_389_87" x="0" y="0" width="569" height="524" filterUnits="userSpaceOnUse" color-interpolation-filters="sRGB">
<feFlood flood-opacity="0" result="BackgroundImageFix"/>
<feBlend mode="normal" in="SourceGraphic" in2="BackgroundImageFix" result="shape"/>
<feTurbulence type="fractalNoise" baseFrequency="inf inf" stitchTiles="stitch" numOctaves="3" result="noise" seed="522" />
<feColorMatrix in="noise" type="luminanceToAlpha" result="alphaNoise" />
<feComponentTransfer in="alphaNoise" result="coloredNoise1">
<feFuncA type="discrete" tableValues="1 1 1 1 1 1 1 1 1 1 1 1 1 1 1 1 1 1 1 1 1 1 1 1 1 1 1 1 1 1 1 1 1 1 1 1 1 1 1 1 1 1 1 1 1 1 1 1 1 1 1 0 0 0 0 0 0 0 0 0 0 0 0 0 0 0 0 0 0 0 0 0 0 0 0 0 0 0 0 0 0 0 0 0 0 0 0 0 0 0 0 0 0 0 0 0 0 0 0 0 "/>
</feComponentTransfer>
<feComposite operator="in" in2="shape" in="coloredNoise1" result="noise1Clipped" />
<feFlood flood-color="rgba(0, 0, 0, 0.25)" result="color1Flood" />
<feComposite operator="in" in2="noise1Clipped" in="color1Flood" result="color1" />
<feMerge result="effect1_noise_389_87">
<feMergeNode in="shape" />
<feMergeNode in="color1" />
</feMerge>
</filter>
<filter id="filter1_d_389_87" x="329.776" y="210.149" width="153.224" height="239.788" filterUnits="userSpaceOnUse" color-interpolation-filters="sRGB">
<feFlood flood-opacity="0" result="BackgroundImageFix"/>
<feColorMatrix in="SourceAlpha" type="matrix" values="0 0 0 0 0 0 0 0 0 0 0 0 0 0 0 0 0 0 127 0" result="hardAlpha"/>
<feOffset/>
<feGaussianBlur stdDeviation="2"/>
<feComposite in2="hardAlpha" operator="out"/>
<feColorMatrix type="matrix" values="0 0 0 0 0 0 0 0 0 0 0 0 0 0 0 0 0 0 0.25 0"/>
<feBlend mode="normal" in2="BackgroundImageFix" result="effect1_dropShadow_389_87"/>
<feBlend mode="normal" in="SourceGraphic" in2="effect1_dropShadow_389_87" result="shape"/>
</filter>
<filter id="filter2_d_389_87" x="78.0469" y="210.149" width="153.224" height="237.876" filterUnits="userSpaceOnUse" color-interpolation-filters="sRGB">
<feFlood flood-opacity="0" result="BackgroundImageFix"/>
<feColorMatrix in="SourceAlpha" type="matrix" values="0 0 0 0 0 0 0 0 0 0 0 0 0 0 0 0 0 0 127 0" result="hardAlpha"/>
<feOffset/>
<feGaussianBlur stdDeviation="2"/>
<feComposite in2="hardAlpha" operator="out"/>
<feColorMatrix type="matrix" values="0 0 0 0 0 0 0 0 0 0 0 0 0 0 0 0 0 0 0.25 0"/>
<feBlend mode="normal" in2="BackgroundImageFix" result="effect1_dropShadow_389_87"/>
<feBlend mode="normal" in="SourceGraphic" in2="effect1_dropShadow_389_87" result="shape"/>
</filter>
<filter id="filter3_d_389_87" x="82.6963" y="287.453" width="395.654" height="164.57" filterUnits="userSpaceOnUse" color-interpolation-filters="sRGB">
<feFlood flood-opacity="0" result="BackgroundImageFix"/>
<feColorMatrix in="SourceAlpha" type="matrix" values="0 0 0 0 0 0 0 0 0 0 0 0 0 0 0 0 0 0 127 0" result="hardAlpha"/>
<feOffset/>
<feGaussianBlur stdDeviation="2"/>
<feComposite in2="hardAlpha" operator="out"/>
<feColorMatrix type="matrix" values="0 0 0 0 0 0 0 0 0 0 0 0 0 0 0 0 0 0 0.25 0"/>
<feBlend mode="normal" in2="BackgroundImageFix" result="effect1_dropShadow_389_87"/>
<feBlend mode="normal" in="SourceGraphic" in2="effect1_dropShadow_389_87" result="shape"/>
</filter>
<linearGradient id="paint0_linear_389_87" x1="280.523" y1="48" x2="280.523" y2="332.173" gradientUnits="userSpaceOnUse">
<stop stop-color="#5082E3"/>
<stop offset="0.860577" stop-color="#5082E3"/>
</linearGradient>
<linearGradient id="paint1_linear_389_87" x1="35" y1="48.8433" x2="109.993" y2="130.654" gradientUnits="userSpaceOnUse">
<stop offset="1" stop-color="#3167EE"/>
</linearGradient>
<linearGradient id="paint2_linear_389_87" x1="206" y1="442.572" x2="534.344" y2="442.572" gradientUnits="userSpaceOnUse">
<stop offset="1" stop-color="#5082E3"/>
</linearGradient>
</defs>
</svg>
