<svg width="569" height="524" viewBox="0 0 569 524" fill="none" xmlns="http://www.w3.org/2000/svg">
<g filter="url(#filter0_n_389_127)">
<rect x="569" y="524" width="569" height="524" rx="21" transform="rotate(-180 569 524)" fill="#EBF7FF"/>
</g>
<path opacity="0.25" d="M114.972 116.637H227.9C245.015 116.637 261.022 127.336 269.637 145.134C274.771 155.747 278.223 168.94 276.181 183.968C272.384 211.791 251.803 231.805 228.375 231.805H134.791C119.474 231.805 104.905 240.357 95.8731 255.264C81.5198 278.931 69.2806 318.994 101.367 368.458C110.5 382.551 124.623 390.637 139.479 390.637H439.115" stroke="#5082E3" stroke-opacity="0.6" stroke-width="29" stroke-miterlimit="10"/>
<path d="M89.8913 167.783C116.341 167.783 137.783 146.341 137.783 119.891C137.783 93.4417 116.341 72 89.8913 72C63.4417 72 42 93.4417 42 119.891C42 146.341 63.4417 167.783 89.8913 167.783Z" fill="#0733BA"/>
<path d="M471.87 451.74C507.697 451.74 536.74 422.697 536.74 386.87C536.74 351.043 507.697 322 471.87 322C436.043 322 407 351.043 407 386.87C407 422.697 436.043 451.74 471.87 451.74Z" fill="#0733BA"/>
<path d="M486.179 398.368L492.346 389.506C492.346 389.506 492.357 389.495 492.368 389.506C492.519 389.517 494.034 389.701 494.921 391.259C496.436 393.823 491.318 396.041 492.93 398.725C492.93 398.725 492.941 398.736 492.952 398.736H500.872C502.246 398.736 503.296 399.006 503.696 399.98C503.696 399.98 505.222 402.793 502.711 404.492C502.711 404.492 503.296 407.857 501.413 408.939C501.413 408.939 502.17 412.001 500.115 413.31C500.115 413.31 500.223 416.188 497.864 416.913C496.652 417.281 494.889 416.859 494.889 416.859C493.082 416.35 489.284 415.441 486.406 414.727C484.945 414.37 483.917 413.061 483.917 411.557V405.812V401.235C483.917 400.553 483.366 400.001 482.673 400.001H478.973C478.291 400.001 477.739 400.553 477.739 401.246V411.492L477.826 413.18L481.58 413.137" stroke="white" stroke-width="2" stroke-linecap="round" stroke-linejoin="round"/>
<path d="M491.588 424C502.661 424 511.637 415.023 511.637 403.95C511.637 392.878 502.661 383.901 491.588 383.901C480.515 383.901 471.539 392.878 471.539 403.95C471.539 415.023 480.515 424 491.588 424Z" stroke="white" stroke-width="2" stroke-linecap="round" stroke-linejoin="round"/>
<path d="M468.781 413.029H436.57C434.038 413.029 431.982 410.973 431.982 408.441V407.846C432.523 398.822 440.584 390.599 451.804 389.095L452.453 388.998C455.245 388.576 457.961 389.312 460.731 389.853C462.44 390.188 462.289 390.22 464.15 390.22M464.139 390.22C473.866 390.22 478.724 379.747 478.724 368.905C478.724 361.05 477.599 356.56 474.234 353.574C471.248 350.955 468.77 350.133 463.76 350.209C457.03 350.306 448.807 353.195 448.807 366.287C448.807 372.682 450.885 378.167 453.233 382.268" stroke="white" stroke-width="2" stroke-linecap="round" stroke-linejoin="round"/>
<path d="M272.891 231.783C299.341 231.783 320.783 210.341 320.783 183.891C320.783 157.442 299.341 136 272.891 136C246.442 136 225 157.442 225 183.891C225 210.341 246.442 231.783 272.891 231.783Z" fill="#5082E3"/>
<path d="M264.819 191.449C264.819 193.305 265.636 194.807 267.268 195.995C268.901 197.164 271.053 197.757 273.724 197.757C276.21 197.757 278.233 197.201 279.773 196.088C281.312 194.974 282.073 193.509 282.073 191.691C282.073 190.503 281.813 189.501 281.312 188.685C280.793 187.869 279.977 187.164 278.826 186.552C277.676 185.939 276.136 185.438 274.17 184.993C271.201 184.381 268.493 183.175 267.342 182.21C266.192 181.246 265.599 179.928 265.599 178.24C265.599 176.552 266.341 175.142 267.806 174.047C269.272 172.953 271.201 172.396 273.557 172.396C276.118 172.396 278.177 172.99 279.735 174.177C281.294 175.364 282.073 176.978 282.073 179.001" stroke="white" stroke-width="2" stroke-linecap="round" stroke-linejoin="round"/>
<path d="M273.445 204.473V201.579V197.887" stroke="white" stroke-width="2" stroke-linecap="round" stroke-linejoin="round"/>
<path d="M273.445 172.266V169.428V164.864" stroke="white" stroke-width="2" stroke-linecap="round" stroke-linejoin="round"/>
<path d="M248.307 200.206C247.843 199.445 247.417 198.685 247.008 197.887C245.023 193.917 243.892 189.427 243.892 184.678C243.892 168.351 257.119 155.124 273.445 155.124C279.531 155.124 285.171 156.96 289.864 160.096" stroke="white" stroke-width="2" stroke-linecap="round" stroke-linejoin="round"/>
<path d="M294.67 164.122C299.827 169.447 303 176.682 303 184.678C303 201.004 289.772 214.232 273.446 214.232C266.878 214.232 260.812 212.099 255.914 208.462C255.005 207.795 254.151 207.09 253.335 206.31" stroke="white" stroke-width="2" stroke-linecap="round" stroke-linejoin="round"/>
<path d="M289.01 152.768L290.662 160.708L282.721 162.359" stroke="white" stroke-width="2" stroke-linecap="round" stroke-linejoin="round"/>
<path d="M253.928 213.508L252.276 205.568L260.217 203.917" stroke="white" stroke-width="2" stroke-linecap="round" stroke-linejoin="round"/>
<path d="M272.888 433.783C299.338 433.783 320.78 412.341 320.78 385.891C320.78 359.442 299.338 338 272.888 338C246.439 338 224.997 359.442 224.997 385.891C224.997 412.341 246.439 433.783 272.888 433.783Z" fill="#5082E3"/>
<path d="M89.8913 360.783C116.341 360.783 137.783 339.341 137.783 312.891C137.783 286.442 116.341 265 89.8913 265C63.4417 265 42 286.442 42 312.891C42 339.341 63.4417 360.783 89.8913 360.783Z" fill="#0733BA"/>
<path d="M109.783 297.817L115.046 294.402" stroke="white" stroke-width="2" stroke-linecap="round" stroke-linejoin="round"/>
<path d="M102.889 292.51L105.738 285.464" stroke="white" stroke-width="2" stroke-linecap="round" stroke-linejoin="round"/>
<path d="M111.501 306.733L118.221 306.951" stroke="white" stroke-width="2" stroke-linecap="round" stroke-linejoin="round"/>
<path d="M76.4219 330.287L80.0104 335.833C80.6846 336.855 80.3801 338.203 79.3797 338.878L76.6612 340.639C75.639 341.313 74.2906 341.009 73.6164 340.009L68.8101 332.614" stroke="white" stroke-width="2" stroke-linecap="round" stroke-linejoin="round"/>
<path d="M104.217 313.15C102.999 314.694 100.759 314.194 99.6929 312.541L96.0609 307.017L92.429 301.493C91.3633 299.84 91.82 297.6 93.7121 297.099C95.2562 296.686 96.8221 296.621 98.4097 296.925C101.128 297.426 103.477 299.013 104.912 301.253C106.348 303.493 106.848 306.277 106.217 308.974C105.848 310.518 105.152 311.953 104.173 313.193L104.217 313.15Z" stroke="white" stroke-width="2" stroke-linecap="round" stroke-linejoin="round"/>
<path d="M70.5386 315.337L63.2693 320.076C62.253 320.738 61.9663 322.099 62.6288 323.115L68.5552 332.207C69.2177 333.223 70.5786 333.51 71.5949 332.847L78.8642 328.108C79.8805 327.446 80.1673 326.085 79.5048 325.069L73.5783 315.978C72.9158 314.961 71.5549 314.675 70.5386 315.337Z" stroke="white" stroke-width="2" stroke-linecap="round" stroke-linejoin="round"/>
<path d="M87.3625 294.337C86.4708 292.945 84.4265 293.01 83.6218 294.446L73.0304 312.953C72.6172 313.671 72.6607 314.541 73.0956 315.237L80.0333 325.872C80.49 326.568 81.273 326.937 82.1212 326.851L103.326 324.61C104.957 324.436 105.848 322.61 104.957 321.218L87.3842 294.337H87.3625Z" stroke="white" stroke-width="2" stroke-linecap="round" stroke-linejoin="round"/>
<g opacity="0.75">
<path d="M41.7258 232L44.4329 237.472L50.4661 238.35L46.1032 242.612L47.1255 248.617L41.7258 245.78L36.3262 248.617L37.3629 242.612L33 238.35L39.0332 237.472L41.7258 232Z" stroke="#282828" stroke-width="2" stroke-linecap="round" stroke-linejoin="round"/>
</g>
<g opacity="0.75">
<path d="M214.416 426.541V442.449" stroke="#282828" stroke-width="2" stroke-miterlimit="10"/>
<path d="M222.36 434.504H206.452" stroke="#282828" stroke-width="2" stroke-miterlimit="10"/>
</g>
<path opacity="0.75" d="M318.381 120.014C319.504 120.014 320.613 120.446 321.477 121.282L323.032 122.808C323.205 122.981 323.493 122.981 323.665 122.808L325.206 121.282C326.948 119.568 329.756 119.582 331.47 121.354C333.111 123.053 332.967 125.817 331.282 127.473C328.777 129.935 326.272 132.412 323.766 134.874C323.521 135.105 323.147 135.105 322.902 134.874L315.285 127.344C313.572 125.644 313.572 122.966 315.285 121.267C316.149 120.418 317.258 120 318.381 120V120.014Z" stroke="#282828" stroke-width="2" stroke-linecap="round" stroke-linejoin="round"/>
<g opacity="0.75">
<path d="M435.755 297C432.719 297 430.258 299.461 430.258 302.497V302.198C430.258 305.234 432.719 307.696 435.755 307.696C438.791 307.696 441.252 305.234 441.252 302.198V302.497C441.252 299.461 438.791 297 435.755 297Z" stroke="#282828" stroke-width="2" stroke-linecap="round" stroke-linejoin="round"/>
<path d="M472.352 297C469.316 297 466.855 299.461 466.855 302.497V302.198C466.855 305.234 469.316 307.696 472.352 307.696C475.388 307.696 477.85 305.234 477.85 302.198V302.497C477.85 299.461 475.388 297 472.352 297Z" stroke="#282828" stroke-width="2" stroke-linecap="round" stroke-linejoin="round"/>
<path d="M508.946 297C505.91 297 503.449 299.461 503.449 302.497V302.198C503.449 305.234 505.91 307.696 508.946 307.696C511.982 307.696 514.443 305.234 514.443 302.198V302.497C514.443 299.461 511.982 297 508.946 297Z" stroke="#282828" stroke-width="2" stroke-linecap="round" stroke-linejoin="round"/>
</g>
<path opacity="0.75" d="M526.091 477.981L519.527 466L513 478L526.091 477.981Z" stroke="#282828" stroke-width="2" stroke-miterlimit="10"/>
<path d="M323.453 344.179C323.453 344.327 323.434 344.471 323.4 344.608L320.648 342.371H321.646C322.643 342.371 323.452 343.178 323.452 344.177L323.453 344.179Z" fill="#3D3A3B"/>
<path d="M282.666 391.376V411.454C282.666 412.909 281.487 414.088 280.032 414.088H257.979C256.754 414.088 255.773 413.108 255.773 411.883V364.331C255.773 362.891 256.953 361.712 258.392 361.712H279.986C281.456 361.712 282.651 362.906 282.651 364.377V373.673" stroke="white" stroke-width="2" stroke-linecap="round" stroke-linejoin="round"/>
<path d="M286.494 391.239H297V373.642H268.821V397.165L274.871 391.223H286.479" stroke="white" stroke-width="2" stroke-linecap="round" stroke-linejoin="round"/>
<path d="M265.819 364.515H272.619" stroke="white" stroke-width="2" stroke-linecap="round" stroke-linejoin="round"/>
<path d="M269.219 413.644C270.302 413.644 271.179 412.767 271.179 411.684C271.179 410.601 270.302 409.724 269.219 409.724C268.136 409.724 267.259 410.601 267.259 411.684C267.259 412.767 268.136 413.644 269.219 413.644Z" stroke="white" stroke-width="2" stroke-linecap="round" stroke-linejoin="round"/>
<mask id="path-38-inside-1_389_127" fill="white">
<path d="M273.325 384.76L272.452 384.087C272.728 383.78 273.019 383.474 273.325 383.198C273.447 383.076 273.524 383.015 273.555 382.984C273.463 382.969 273.187 382.907 272.728 382.8C272.406 382.724 272.192 382.662 272.084 382.616L272.421 381.606C272.927 381.805 273.371 382.034 273.769 382.28C273.677 381.652 273.631 381.146 273.631 380.748H274.657C274.657 381.024 274.611 381.544 274.504 382.295C274.581 382.264 274.749 382.188 274.994 382.065C275.346 381.912 275.668 381.774 275.959 381.667L276.265 382.708C275.837 382.8 275.346 382.892 274.78 382.984L275.469 383.765C275.607 383.918 275.714 384.056 275.806 384.148L274.918 384.73L274.137 383.443C273.907 383.857 273.631 384.301 273.325 384.776V384.76Z"/>
</mask>
<path d="M273.325 384.76L272.452 384.087C272.728 383.78 273.019 383.474 273.325 383.198C273.447 383.076 273.524 383.015 273.555 382.984C273.463 382.969 273.187 382.907 272.728 382.8C272.406 382.724 272.192 382.662 272.084 382.616L272.421 381.606C272.927 381.805 273.371 382.034 273.769 382.28C273.677 381.652 273.631 381.146 273.631 380.748H274.657C274.657 381.024 274.611 381.544 274.504 382.295C274.581 382.264 274.749 382.188 274.994 382.065C275.346 381.912 275.668 381.774 275.959 381.667L276.265 382.708C275.837 382.8 275.346 382.892 274.78 382.984L275.469 383.765C275.607 383.918 275.714 384.056 275.806 384.148L274.918 384.73L274.137 383.443C273.907 383.857 273.631 384.301 273.325 384.776V384.76Z" fill="black"/>
<path d="M273.325 384.76H275.325V383.778L274.547 383.177L273.325 384.76ZM272.452 384.087L270.965 382.749L269.523 384.352L271.23 385.67L272.452 384.087ZM273.325 383.198L274.663 384.685L274.702 384.65L274.739 384.613L273.325 383.198ZM273.555 382.984L274.969 384.398L277.717 381.65L273.883 381.011L273.555 382.984ZM272.728 382.8L272.264 384.746L272.273 384.748L272.728 382.8ZM272.084 382.616L270.187 381.984L269.605 383.73L271.297 384.455L272.084 382.616ZM272.421 381.606L273.154 379.745L271.191 378.971L270.524 380.973L272.421 381.606ZM273.769 382.28L272.721 383.983L276.368 386.227L275.748 381.99L273.769 382.28ZM273.631 380.748V378.748H271.631V380.748H273.631ZM274.657 380.748H276.657V378.748H274.657V380.748ZM274.504 382.295L272.524 382.012L272.035 385.437L275.247 384.152L274.504 382.295ZM274.994 382.065L274.197 380.231L274.148 380.252L274.1 380.276L274.994 382.065ZM275.959 381.667L277.878 381.103L277.274 379.051L275.268 379.79L275.959 381.667ZM276.265 382.708L276.684 384.664L278.792 384.212L278.184 382.144L276.265 382.708ZM274.78 382.984L274.46 381.01L270.882 381.59L273.28 384.307L274.78 382.984ZM275.469 383.765L273.969 385.088L273.976 385.096L273.982 385.103L275.469 383.765ZM275.806 384.148L276.902 385.821L278.959 384.473L277.22 382.734L275.806 384.148ZM274.918 384.73L273.208 385.768L274.282 387.537L276.014 386.403L274.918 384.73ZM274.137 383.443L275.846 382.405L274.06 379.463L272.388 382.472L274.137 383.443ZM273.325 384.776H271.325V391.565L275.006 385.86L273.325 384.776ZM273.325 384.76L274.547 383.177L273.674 382.503L272.452 384.087L271.23 385.67L272.103 386.344L273.325 384.76ZM272.452 384.087L273.939 385.425C274.193 385.141 274.431 384.893 274.663 384.685L273.325 383.198L271.987 381.712C271.606 382.055 271.262 382.419 270.965 382.749L272.452 384.087ZM273.325 383.198L274.739 384.613C274.77 384.582 274.793 384.561 274.812 384.543C274.829 384.528 274.829 384.528 274.855 384.505C274.864 384.497 274.879 384.484 274.896 384.468C274.911 384.454 274.938 384.429 274.969 384.398L273.555 382.984L272.14 381.57C272.164 381.546 272.182 381.53 272.187 381.525C272.192 381.52 272.195 381.517 272.191 381.521C272.19 381.522 272.158 381.551 272.136 381.57C272.079 381.622 272.003 381.692 271.911 381.784L273.325 383.198ZM273.555 382.984L273.883 381.011C273.902 381.014 273.9 381.014 273.859 381.006C273.825 380.999 273.777 380.988 273.713 380.974C273.585 380.946 273.409 380.905 273.182 380.853L272.728 382.8L272.273 384.748C272.7 384.847 273.054 384.928 273.226 384.957L273.555 382.984ZM272.728 382.8L273.191 380.855C273.047 380.82 272.944 380.793 272.875 380.774C272.841 380.764 272.823 380.758 272.817 380.756C272.809 380.753 272.831 380.76 272.872 380.778L272.084 382.616L271.297 384.455C271.586 384.579 271.964 384.674 272.264 384.746L272.728 382.8ZM272.084 382.616L273.982 383.249L274.319 382.238L272.421 381.606L270.524 380.973L270.187 381.984L272.084 382.616ZM272.421 381.606L271.688 383.466C272.075 383.619 272.415 383.794 272.721 383.983L273.769 382.28L274.817 380.576C274.327 380.275 273.778 379.991 273.154 379.745L272.421 381.606ZM273.769 382.28L275.748 381.99C275.663 381.407 275.631 381.008 275.631 380.748H273.631H271.631C271.631 381.284 271.692 381.897 271.79 382.569L273.769 382.28ZM273.631 380.748V382.748H274.657V380.748V378.748H273.631V380.748ZM274.657 380.748H272.657C272.657 380.874 272.629 381.277 272.524 382.012L274.504 382.295L276.484 382.578C276.594 381.812 276.657 381.174 276.657 380.748H274.657ZM274.504 382.295L275.247 384.152C275.403 384.09 275.631 383.983 275.889 383.854L274.994 382.065L274.1 380.276C273.992 380.33 273.905 380.372 273.843 380.401C273.773 380.433 273.75 380.442 273.761 380.438L274.504 382.295ZM274.994 382.065L275.792 383.899C276.149 383.744 276.421 383.628 276.65 383.544L275.959 381.667L275.268 379.79C274.915 379.92 274.544 380.08 274.197 380.231L274.994 382.065ZM275.959 381.667L274.04 382.231L274.347 383.273L276.265 382.708L278.184 382.144L277.878 381.103L275.959 381.667ZM276.265 382.708L275.846 380.753C275.455 380.837 274.999 380.922 274.46 381.01L274.78 382.984L275.1 384.958C275.694 384.862 276.218 384.764 276.684 384.664L276.265 382.708ZM274.78 382.984L273.28 384.307L273.969 385.088L275.469 383.765L276.969 382.442L276.28 381.661L274.78 382.984ZM275.469 383.765L273.982 385.103C274.029 385.154 274.067 385.2 274.133 385.277C274.183 385.336 274.282 385.452 274.392 385.562L275.806 384.148L277.22 382.734C277.234 382.748 277.239 382.753 277.228 382.741C277.218 382.73 277.203 382.712 277.176 382.682C277.131 382.628 277.047 382.529 276.956 382.427L275.469 383.765ZM275.806 384.148L274.71 382.475L273.822 383.057L274.918 384.73L276.014 386.403L276.902 385.821L275.806 384.148ZM274.918 384.73L276.627 383.692L275.846 382.405L274.137 383.443L272.427 384.481L273.208 385.768L274.918 384.73ZM274.137 383.443L272.388 382.472C272.19 382.829 271.942 383.23 271.644 383.692L273.325 384.776L275.006 385.86C275.32 385.372 275.624 384.885 275.885 384.415L274.137 383.443ZM273.325 384.776H275.325V384.76H273.325H271.325V384.776H273.325Z" fill="white" mask="url(#path-38-inside-1_389_127)"/>
<mask id="path-40-inside-2_389_127" fill="white">
<path d="M282.07 384.76L281.197 384.087C281.472 383.78 281.763 383.474 282.07 383.198C282.192 383.076 282.269 383.015 282.299 382.984C282.207 382.969 281.932 382.907 281.472 382.8C281.151 382.724 280.936 382.662 280.829 382.616L281.166 381.606C281.671 381.805 282.116 382.034 282.514 382.28C282.422 381.652 282.376 381.146 282.376 380.748H283.402C283.402 381.024 283.356 381.544 283.249 382.295C283.325 382.264 283.494 382.188 283.739 382.065C284.091 381.912 284.413 381.774 284.704 381.667L285.01 382.708C284.581 382.8 284.091 382.892 283.524 382.984L284.214 383.765C284.351 383.918 284.459 384.056 284.551 384.148L283.662 384.73L282.881 383.443C282.652 383.857 282.376 384.301 282.07 384.776V384.76Z"/>
</mask>
<path d="M282.07 384.76L281.197 384.087C281.472 383.78 281.763 383.474 282.07 383.198C282.192 383.076 282.269 383.015 282.299 382.984C282.207 382.969 281.932 382.907 281.472 382.8C281.151 382.724 280.936 382.662 280.829 382.616L281.166 381.606C281.671 381.805 282.116 382.034 282.514 382.28C282.422 381.652 282.376 381.146 282.376 380.748H283.402C283.402 381.024 283.356 381.544 283.249 382.295C283.325 382.264 283.494 382.188 283.739 382.065C284.091 381.912 284.413 381.774 284.704 381.667L285.01 382.708C284.581 382.8 284.091 382.892 283.524 382.984L284.214 383.765C284.351 383.918 284.459 384.056 284.551 384.148L283.662 384.73L282.881 383.443C282.652 383.857 282.376 384.301 282.07 384.776V384.76Z" fill="white"/>
<path d="M282.07 384.76H284.07V383.778L283.292 383.177L282.07 384.76ZM281.197 384.087L279.71 382.749L278.267 384.352L279.975 385.67L281.197 384.087ZM282.07 383.198L283.408 384.685L283.447 384.65L283.484 384.613L282.07 383.198ZM282.299 382.984L283.714 384.398L286.462 381.65L282.628 381.011L282.299 382.984ZM281.472 382.8L281.009 384.746L281.018 384.748L281.472 382.8ZM280.829 382.616L278.932 381.984L278.35 383.73L280.041 384.455L280.829 382.616ZM281.166 381.606L281.899 379.745L279.936 378.971L279.269 380.973L281.166 381.606ZM282.514 382.28L281.466 383.983L285.113 386.227L284.493 381.99L282.514 382.28ZM282.376 380.748V378.748H280.376V380.748H282.376ZM283.402 380.748H285.402V378.748H283.402V380.748ZM283.249 382.295L281.269 382.012L280.78 385.437L283.992 384.152L283.249 382.295ZM283.739 382.065L282.941 380.231L282.892 380.252L282.844 380.276L283.739 382.065ZM284.704 381.667L286.622 381.103L286.019 379.051L284.012 379.79L284.704 381.667ZM285.01 382.708L285.429 384.664L287.537 384.212L286.929 382.144L285.01 382.708ZM283.524 382.984L283.204 381.01L279.627 381.59L282.025 384.307L283.524 382.984ZM284.214 383.765L282.714 385.088L282.72 385.096L282.727 385.103L284.214 383.765ZM284.551 384.148L285.647 385.821L287.704 384.473L285.965 382.734L284.551 384.148ZM283.662 384.73L281.953 385.768L283.027 387.537L284.758 386.403L283.662 384.73ZM282.881 383.443L284.591 382.405L282.805 379.463L281.133 382.472L282.881 383.443ZM282.07 384.776H280.07V391.565L283.75 385.86L282.07 384.776ZM282.07 384.76L283.292 383.177L282.419 382.503L281.197 384.087L279.975 385.67L280.847 386.344L282.07 384.76ZM281.197 384.087L282.683 385.425C282.938 385.141 283.176 384.893 283.408 384.685L282.07 383.198L280.732 381.712C280.351 382.055 280.007 382.419 279.71 382.749L281.197 384.087ZM282.07 383.198L283.484 384.613C283.514 384.582 283.537 384.561 283.557 384.543C283.574 384.528 283.574 384.528 283.6 384.505C283.609 384.497 283.624 384.484 283.64 384.468C283.656 384.454 283.682 384.429 283.714 384.398L282.299 382.984L280.885 381.57C280.908 381.546 280.926 381.53 280.931 381.525C280.937 381.52 280.94 381.517 280.936 381.521C280.935 381.522 280.903 381.551 280.881 381.57C280.824 381.622 280.747 381.692 280.655 381.784L282.07 383.198ZM282.299 382.984L282.628 381.011C282.646 381.014 282.644 381.014 282.604 381.006C282.57 380.999 282.522 380.988 282.458 380.974C282.33 380.946 282.154 380.905 281.927 380.853L281.472 382.8L281.018 384.748C281.444 384.847 281.799 384.928 281.971 384.957L282.299 382.984ZM281.472 382.8L281.936 380.855C281.791 380.82 281.688 380.793 281.62 380.774C281.586 380.764 281.568 380.758 281.562 380.756C281.553 380.753 281.576 380.76 281.617 380.778L280.829 382.616L280.041 384.455C280.33 384.579 280.709 384.674 281.009 384.746L281.472 382.8ZM280.829 382.616L282.726 383.249L283.063 382.238L281.166 381.606L279.269 380.973L278.932 381.984L280.829 382.616ZM281.166 381.606L280.433 383.466C280.82 383.619 281.159 383.794 281.466 383.983L282.514 382.28L283.562 380.576C283.072 380.275 282.523 379.991 281.899 379.745L281.166 381.606ZM282.514 382.28L284.493 381.99C284.407 381.407 284.376 381.009 284.376 380.748H282.376H280.376C280.376 381.284 280.436 381.897 280.535 382.569L282.514 382.28ZM282.376 380.748V382.748H283.402V380.748V378.748H282.376V380.748ZM283.402 380.748H281.402C281.402 380.874 281.374 381.277 281.269 382.012L283.249 382.295L285.229 382.578C285.338 381.812 285.402 381.174 285.402 380.748H283.402ZM283.249 382.295L283.992 384.152C284.147 384.089 284.375 383.983 284.633 383.854L283.739 382.065L282.844 380.276C282.736 380.33 282.65 380.372 282.587 380.401C282.518 380.433 282.495 380.442 282.506 380.438L283.249 382.295ZM283.739 382.065L284.536 383.899C284.894 383.744 285.165 383.628 285.395 383.544L284.704 381.667L284.012 379.79C283.66 379.92 283.289 380.08 282.941 380.231L283.739 382.065ZM284.704 381.667L282.785 382.231L283.091 383.273L285.01 382.708L286.929 382.144L286.622 381.103L284.704 381.667ZM285.01 382.708L284.591 380.753C284.2 380.837 283.743 380.922 283.204 381.01L283.524 382.984L283.845 384.958C284.439 384.862 284.962 384.764 285.429 384.664L285.01 382.708ZM283.524 382.984L282.025 384.307L282.714 385.088L284.214 383.765L285.713 382.442L285.024 381.661L283.524 382.984ZM284.214 383.765L282.727 385.103C282.773 385.154 282.812 385.201 282.878 385.277C282.928 385.336 283.026 385.452 283.136 385.562L284.551 384.148L285.965 382.734C285.979 382.748 285.983 382.753 285.973 382.741C285.962 382.73 285.947 382.712 285.921 382.682C285.875 382.628 285.792 382.529 285.7 382.427L284.214 383.765ZM284.551 384.148L283.455 382.475L282.566 383.057L283.662 384.73L284.758 386.403L285.647 385.821L284.551 384.148ZM283.662 384.73L285.372 383.692L284.591 382.405L282.881 383.443L281.172 384.481L281.953 385.768L283.662 384.73ZM282.881 383.443L281.133 382.472C280.935 382.829 280.687 383.23 280.389 383.692L282.07 384.776L283.75 385.86C284.065 385.372 284.368 384.885 284.63 384.415L282.881 383.443ZM282.07 384.776H284.07V384.76H282.07H280.07V384.776H282.07Z" fill="white" mask="url(#path-40-inside-2_389_127)"/>
<mask id="path-42-inside-3_389_127" fill="white">
<path d="M283.402 380.733H282.376C282.376 381.131 282.422 381.636 282.514 382.264C282.116 382.019 281.671 381.789 281.166 381.59L280.829 382.601C280.936 382.647 281.151 382.693 281.472 382.785C281.932 382.892 282.207 382.953 282.299 382.969C282.269 382.999 282.192 383.076 282.07 383.183C281.763 383.474 281.488 383.765 281.197 384.071L282.07 384.745C282.376 384.27 282.636 383.826 282.881 383.413L283.662 384.699L284.551 384.117C284.474 384.01 284.367 383.887 284.214 383.734L283.524 382.953C284.091 382.861 284.581 382.769 285.01 382.678L284.704 381.636C284.413 381.743 284.091 381.881 283.739 382.034C283.479 382.157 283.325 382.233 283.249 382.264C283.356 381.514 283.402 380.993 283.402 380.717V380.733Z"/>
</mask>
<path d="M283.402 380.733H282.376C282.376 381.131 282.422 381.636 282.514 382.264C282.116 382.019 281.671 381.789 281.166 381.59L280.829 382.601C280.936 382.647 281.151 382.693 281.472 382.785C281.932 382.892 282.207 382.953 282.299 382.969C282.269 382.999 282.192 383.076 282.07 383.183C281.763 383.474 281.488 383.765 281.197 384.071L282.07 384.745C282.376 384.27 282.636 383.826 282.881 383.413L283.662 384.699L284.551 384.117C284.474 384.01 284.367 383.887 284.214 383.734L283.524 382.953C284.091 382.861 284.581 382.769 285.01 382.678L284.704 381.636C284.413 381.743 284.091 381.881 283.739 382.034C283.479 382.157 283.325 382.233 283.249 382.264C283.356 381.514 283.402 380.993 283.402 380.717V380.733Z" fill="black"/>
<path d="M283.402 380.733V382.733H285.402V380.733H283.402ZM282.376 380.733V378.733H280.376V380.733H282.376ZM282.514 382.264L281.466 383.967L285.113 386.212L284.493 381.974L282.514 382.264ZM281.166 381.59L281.899 379.729L279.936 378.956L279.269 380.958L281.166 381.59ZM280.829 382.601L278.932 381.969L278.35 383.714L280.041 384.439L280.829 382.601ZM281.472 382.785L280.923 384.708L280.97 384.721L281.018 384.732L281.472 382.785ZM282.299 382.969L283.714 384.383L286.462 381.635L282.628 380.996L282.299 382.969ZM282.07 383.183L280.753 381.678L280.722 381.705L280.692 381.733L282.07 383.183ZM281.197 384.071L279.747 382.694L278.22 384.3L279.975 385.654L281.197 384.071ZM282.07 384.745L280.847 386.328L282.57 387.658L283.75 385.829L282.07 384.745ZM282.881 383.413L284.591 382.375L282.86 379.525L281.161 382.393L282.881 383.413ZM283.662 384.699L281.953 385.737L283.027 387.506L284.758 386.372L283.662 384.699ZM284.551 384.117L285.647 385.79L287.388 384.649L286.178 382.955L284.551 384.117ZM284.214 383.734L282.714 385.058L282.755 385.104L282.799 385.148L284.214 383.734ZM283.524 382.953L283.204 380.979L279.627 381.559L282.025 384.276L283.524 382.953ZM285.01 382.678L285.429 384.633L287.537 384.181L286.929 382.113L285.01 382.678ZM284.704 381.636L286.622 381.072L286.019 379.02L284.012 379.759L284.704 381.636ZM283.739 382.034L282.941 380.2L282.914 380.212L282.887 380.225L283.739 382.034ZM283.249 382.264L281.269 381.981L280.78 385.406L283.992 384.121L283.249 382.264ZM283.402 380.733V378.733H282.376V380.733V382.733H283.402V380.733ZM282.376 380.733H280.376C280.376 381.269 280.436 381.881 280.535 382.554L282.514 382.264L284.493 381.974C284.407 381.391 284.376 380.993 284.376 380.733H282.376ZM282.514 382.264L283.562 380.561C283.072 380.259 282.523 379.975 281.899 379.729L281.166 381.59L280.433 383.451C280.82 383.604 281.159 383.779 281.466 383.967L282.514 382.264ZM281.166 381.59L279.269 380.958L278.932 381.969L280.829 382.601L282.726 383.233L283.063 382.223L281.166 381.59ZM280.829 382.601L280.041 384.439C280.167 384.493 280.281 384.529 280.349 384.55C280.422 384.572 280.496 384.592 280.553 384.608C280.681 384.642 280.783 384.668 280.923 384.708L281.472 382.785L282.022 380.862C281.84 380.81 281.674 380.767 281.588 380.744C281.538 380.73 281.517 380.724 281.511 380.722C281.498 380.719 281.545 380.732 281.617 380.763L280.829 382.601ZM281.472 382.785L281.018 384.732C281.444 384.832 281.799 384.913 281.971 384.941L282.299 382.969L282.628 380.996C282.646 380.999 282.644 380.999 282.604 380.99C282.57 380.983 282.522 380.973 282.458 380.959C282.33 380.93 282.154 380.89 281.927 380.837L281.472 382.785ZM282.299 382.969L280.885 381.554C280.874 381.566 280.861 381.578 280.841 381.597C280.821 381.616 280.792 381.644 280.753 381.678L282.07 383.183L283.387 384.688C283.556 384.54 283.668 384.429 283.714 384.383L282.299 382.969ZM282.07 383.183L280.692 381.733C280.342 382.065 280.031 382.395 279.747 382.694L281.197 384.071L282.647 385.449C282.944 385.135 283.184 384.882 283.447 384.633L282.07 383.183ZM281.197 384.071L279.975 385.654L280.847 386.328L282.07 384.745L283.292 383.162L282.419 382.488L281.197 384.071ZM282.07 384.745L283.75 385.829C284.082 385.316 284.363 384.835 284.602 384.432L282.881 383.413L281.161 382.393C280.909 382.817 280.67 383.225 280.389 383.661L282.07 384.745ZM282.881 383.413L281.172 384.451L281.953 385.737L283.662 384.699L285.372 383.661L284.591 382.375L282.881 383.413ZM283.662 384.699L284.758 386.372L285.647 385.79L284.551 384.117L283.455 382.444L282.566 383.026L283.662 384.699ZM284.551 384.117L286.178 382.955C286.012 382.723 285.821 382.513 285.628 382.32L284.214 383.734L282.799 385.148C282.853 385.202 282.888 385.24 282.908 385.263C282.929 385.287 282.931 385.291 282.923 385.28L284.551 384.117ZM284.214 383.734L285.713 382.411L285.024 381.63L283.524 382.953L282.025 384.276L282.714 385.058L284.214 383.734ZM283.524 382.953L283.845 384.927C284.439 384.831 284.962 384.733 285.429 384.633L285.01 382.678L284.591 380.722C284.2 380.806 283.743 380.892 283.204 380.979L283.524 382.953ZM285.01 382.678L286.929 382.113L286.622 381.072L284.704 381.636L282.785 382.2L283.091 383.242L285.01 382.678ZM284.704 381.636L284.012 379.759C283.66 379.889 283.289 380.049 282.941 380.2L283.739 382.034L284.536 383.868C284.894 383.713 285.165 383.598 285.395 383.513L284.704 381.636ZM283.739 382.034L282.887 380.225C282.752 380.288 282.636 380.344 282.565 380.378C282.526 380.396 282.502 380.408 282.487 380.415C282.468 380.424 282.479 380.418 282.506 380.407L283.249 382.264L283.992 384.121C284.057 384.095 284.116 384.068 284.155 384.05C284.198 384.031 284.243 384.009 284.285 383.989C284.374 383.947 284.466 383.903 284.59 383.844L283.739 382.034ZM283.249 382.264L285.229 382.547C285.338 381.781 285.402 381.143 285.402 380.717H283.402H281.402C281.402 380.843 281.374 381.247 281.269 381.981L283.249 382.264ZM283.402 380.717H281.402V380.733H283.402H285.402V380.717H283.402Z" fill="white" mask="url(#path-42-inside-3_389_127)"/>
<mask id="path-44-inside-4_389_127" fill="white">
<path d="M290.814 384.76L289.941 384.087C290.217 383.78 290.508 383.474 290.814 383.198C290.937 383.076 291.013 383.015 291.044 382.984C290.952 382.969 290.676 382.907 290.217 382.8C289.895 382.724 289.681 382.662 289.574 382.616L289.911 381.606C290.416 381.805 290.86 382.034 291.258 382.28C291.166 381.652 291.121 381.146 291.121 380.748H292.147C292.147 381.024 292.101 381.544 291.993 382.295C292.07 382.264 292.238 382.188 292.484 382.065C292.836 381.912 293.157 381.774 293.448 381.667L293.755 382.708C293.326 382.8 292.836 382.892 292.269 382.984L292.958 383.765C293.096 383.918 293.203 384.056 293.295 384.148L292.407 384.73L291.626 383.443C291.396 383.857 291.121 384.301 290.814 384.776V384.76Z"/>
</mask>
<path d="M290.814 384.76L289.941 384.087C290.217 383.78 290.508 383.474 290.814 383.198C290.937 383.076 291.013 383.015 291.044 382.984C290.952 382.969 290.676 382.907 290.217 382.8C289.895 382.724 289.681 382.662 289.574 382.616L289.911 381.606C290.416 381.805 290.86 382.034 291.258 382.28C291.166 381.652 291.121 381.146 291.121 380.748H292.147C292.147 381.024 292.101 381.544 291.993 382.295C292.07 382.264 292.238 382.188 292.484 382.065C292.836 381.912 293.157 381.774 293.448 381.667L293.755 382.708C293.326 382.8 292.836 382.892 292.269 382.984L292.958 383.765C293.096 383.918 293.203 384.056 293.295 384.148L292.407 384.73L291.626 383.443C291.396 383.857 291.121 384.301 290.814 384.776V384.76Z" fill="white"/>
<path d="M290.814 384.76H292.814V383.778L292.036 383.177L290.814 384.76ZM289.941 384.087L288.455 382.749L287.012 384.352L288.719 385.67L289.941 384.087ZM290.814 383.198L292.152 384.685L292.191 384.65L292.228 384.613L290.814 383.198ZM291.044 382.984L292.458 384.398L295.206 381.65L291.373 381.011L291.044 382.984ZM290.217 382.8L289.754 384.746L289.762 384.748L290.217 382.8ZM289.574 382.616L287.676 381.984L287.094 383.73L288.786 384.455L289.574 382.616ZM289.911 381.606L290.644 379.745L288.681 378.971L288.013 380.973L289.911 381.606ZM291.258 382.28L290.21 383.983L293.857 386.227L293.237 381.99L291.258 382.28ZM291.121 380.748V378.748H289.121V380.748H291.121ZM292.147 380.748H294.147V378.748H292.147V380.748ZM291.993 382.295L290.014 382.012L289.524 385.437L292.736 384.152L291.993 382.295ZM292.484 382.065L291.686 380.231L291.637 380.252L291.589 380.276L292.484 382.065ZM293.448 381.667L295.367 381.103L294.764 379.051L292.757 379.79L293.448 381.667ZM293.755 382.708L294.174 384.664L296.282 384.212L295.673 382.144L293.755 382.708ZM292.269 382.984L291.949 381.01L288.372 381.59L290.769 384.307L292.269 382.984ZM292.958 383.765L291.459 385.088L291.465 385.096L291.472 385.103L292.958 383.765ZM293.295 384.148L294.391 385.821L296.449 384.473L294.709 382.734L293.295 384.148ZM292.407 384.73L290.697 385.768L291.772 387.537L293.503 386.403L292.407 384.73ZM291.626 383.443L293.335 382.405L291.549 379.463L289.878 382.472L291.626 383.443ZM290.814 384.776H288.814V391.565L292.495 385.86L290.814 384.776ZM290.814 384.76L292.036 383.177L291.163 382.503L289.941 384.087L288.719 385.67L289.592 386.344L290.814 384.76ZM289.941 384.087L291.428 385.425C291.683 385.141 291.921 384.893 292.152 384.685L290.814 383.198L289.476 381.712C289.095 382.055 288.751 382.419 288.455 382.749L289.941 384.087ZM290.814 383.198L292.228 384.613C292.259 384.582 292.282 384.561 292.301 384.543C292.318 384.528 292.318 384.528 292.344 384.505C292.353 384.497 292.368 384.484 292.385 384.469C292.4 384.454 292.427 384.429 292.458 384.398L291.044 382.984L289.63 381.57C289.653 381.546 289.671 381.53 289.676 381.525C289.682 381.52 289.685 381.517 289.68 381.521C289.679 381.522 289.647 381.551 289.626 381.57C289.568 381.622 289.492 381.692 289.4 381.784L290.814 383.198ZM291.044 382.984L291.373 381.011C291.391 381.014 291.389 381.014 291.348 381.006C291.314 380.999 291.266 380.988 291.202 380.974C291.074 380.946 290.898 380.905 290.671 380.853L290.217 382.8L289.762 384.748C290.189 384.847 290.544 384.928 290.715 384.957L291.044 382.984ZM290.217 382.8L290.68 380.855C290.536 380.82 290.433 380.793 290.364 380.774C290.331 380.764 290.312 380.758 290.307 380.756C290.298 380.753 290.32 380.76 290.362 380.778L289.574 382.616L288.786 384.455C289.075 384.579 289.453 384.674 289.754 384.746L290.217 382.8ZM289.574 382.616L291.471 383.249L291.808 382.238L289.911 381.606L288.013 380.973L287.676 381.984L289.574 382.616ZM289.911 381.606L289.178 383.466C289.565 383.619 289.904 383.794 290.21 383.983L291.258 382.28L292.307 380.576C291.817 380.275 291.267 379.991 290.644 379.745L289.911 381.606ZM291.258 382.28L293.237 381.99C293.152 381.407 293.121 381.008 293.121 380.748H291.121H289.121C289.121 381.284 289.181 381.897 289.279 382.569L291.258 382.28ZM291.121 380.748V382.748H292.147V380.748V378.748H291.121V380.748ZM292.147 380.748H290.147C290.147 380.874 290.119 381.277 290.014 382.012L291.993 382.295L293.973 382.578C294.083 381.812 294.147 381.174 294.147 380.748H292.147ZM291.993 382.295L292.736 384.152C292.892 384.089 293.12 383.983 293.378 383.854L292.484 382.065L291.589 380.276C291.481 380.33 291.395 380.372 291.332 380.401C291.262 380.433 291.239 380.442 291.251 380.438L291.993 382.295ZM292.484 382.065L293.281 383.899C293.638 383.744 293.91 383.628 294.14 383.544L293.448 381.667L292.757 379.79C292.405 379.92 292.033 380.08 291.686 380.231L292.484 382.065ZM293.448 381.667L291.53 382.231L291.836 383.273L293.755 382.708L295.673 382.144L295.367 381.103L293.448 381.667ZM293.755 382.708L293.336 380.753C292.945 380.837 292.488 380.922 291.949 381.01L292.269 382.984L292.589 384.958C293.184 384.862 293.707 384.764 294.174 384.664L293.755 382.708ZM292.269 382.984L290.769 384.307L291.459 385.088L292.958 383.765L294.458 382.442L293.769 381.661L292.269 382.984ZM292.958 383.765L291.472 385.103C291.518 385.154 291.557 385.2 291.622 385.277C291.672 385.336 291.771 385.452 291.881 385.562L293.295 384.148L294.709 382.734C294.724 382.748 294.728 382.753 294.717 382.741C294.707 382.73 294.692 382.712 294.666 382.682C294.62 382.628 294.536 382.529 294.445 382.427L292.958 383.765ZM293.295 384.148L292.199 382.475L291.311 383.057L292.407 384.73L293.503 386.403L294.391 385.821L293.295 384.148ZM292.407 384.73L294.117 383.692L293.335 382.405L291.626 383.443L289.916 384.481L290.697 385.768L292.407 384.73ZM291.626 383.443L289.878 382.472C289.679 382.829 289.431 383.23 289.134 383.692L290.814 384.776L292.495 385.86C292.81 385.372 293.113 384.885 293.374 384.415L291.626 383.443ZM290.814 384.776H292.814V384.76H290.814H288.814V384.776H290.814Z" fill="white" mask="url(#path-44-inside-4_389_127)"/>
<mask id="path-46-inside-5_389_127" fill="white">
<path d="M292.147 380.733H291.121C291.121 381.131 291.166 381.636 291.258 382.264C290.86 382.019 290.416 381.789 289.911 381.59L289.574 382.601C289.681 382.647 289.895 382.693 290.217 382.785C290.676 382.892 290.952 382.953 291.044 382.969C291.013 382.999 290.937 383.076 290.814 383.183C290.508 383.474 290.232 383.765 289.941 384.071L290.814 384.745C291.121 384.27 291.381 383.826 291.626 383.413L292.407 384.699L293.295 384.117C293.219 384.01 293.111 383.887 292.958 383.734L292.269 382.953C292.836 382.861 293.326 382.769 293.755 382.678L293.448 381.636C293.157 381.743 292.836 381.881 292.484 382.034C292.223 382.157 292.07 382.233 291.993 382.264C292.101 381.514 292.147 380.993 292.147 380.717V380.733Z"/>
</mask>
<path d="M292.147 380.733H291.121C291.121 381.131 291.166 381.636 291.258 382.264C290.86 382.019 290.416 381.789 289.911 381.59L289.574 382.601C289.681 382.647 289.895 382.693 290.217 382.785C290.676 382.892 290.952 382.953 291.044 382.969C291.013 382.999 290.937 383.076 290.814 383.183C290.508 383.474 290.232 383.765 289.941 384.071L290.814 384.745C291.121 384.27 291.381 383.826 291.626 383.413L292.407 384.699L293.295 384.117C293.219 384.01 293.111 383.887 292.958 383.734L292.269 382.953C292.836 382.861 293.326 382.769 293.755 382.678L293.448 381.636C293.157 381.743 292.836 381.881 292.484 382.034C292.223 382.157 292.07 382.233 291.993 382.264C292.101 381.514 292.147 380.993 292.147 380.717V380.733Z" fill="black"/>
<path d="M292.147 380.733V382.733H294.147V380.733H292.147ZM291.121 380.733V378.733H289.121V380.733H291.121ZM291.258 382.264L290.21 383.967L293.857 386.212L293.237 381.974L291.258 382.264ZM289.911 381.59L290.644 379.729L288.681 378.956L288.013 380.958L289.911 381.59ZM289.574 382.601L287.676 381.969L287.094 383.714L288.786 384.439L289.574 382.601ZM290.217 382.785L289.668 384.708L289.715 384.721L289.762 384.732L290.217 382.785ZM291.044 382.969L292.458 384.383L295.206 381.635L291.373 380.996L291.044 382.969ZM290.814 383.183L289.497 381.678L289.466 381.705L289.437 381.733L290.814 383.183ZM289.941 384.071L288.491 382.694L286.965 384.3L288.719 385.654L289.941 384.071ZM290.814 384.745L289.592 386.328L291.315 387.658L292.495 385.829L290.814 384.745ZM291.626 383.413L293.335 382.375L291.605 379.525L289.905 382.393L291.626 383.413ZM292.407 384.699L290.697 385.737L291.772 387.506L293.503 386.372L292.407 384.699ZM293.295 384.117L294.391 385.79L296.133 384.649L294.923 382.955L293.295 384.117ZM292.958 383.734L291.459 385.058L291.5 385.104L291.544 385.148L292.958 383.734ZM292.269 382.953L291.949 380.979L288.372 381.559L290.769 384.276L292.269 382.953ZM293.755 382.678L294.174 384.633L296.282 384.181L295.673 382.113L293.755 382.678ZM293.448 381.636L295.367 381.072L294.764 379.02L292.757 379.759L293.448 381.636ZM292.484 382.034L291.686 380.2L291.659 380.212L291.632 380.225L292.484 382.034ZM291.993 382.264L290.014 381.981L289.524 385.406L292.736 384.121L291.993 382.264ZM292.147 380.733V378.733H291.121V380.733V382.733H292.147V380.733ZM291.121 380.733H289.121C289.121 381.269 289.181 381.881 289.279 382.554L291.258 382.264L293.237 381.974C293.152 381.391 293.121 380.993 293.121 380.733H291.121ZM291.258 382.264L292.307 380.561C291.817 380.259 291.267 379.975 290.644 379.729L289.911 381.59L289.178 383.451C289.565 383.604 289.904 383.779 290.21 383.967L291.258 382.264ZM289.911 381.59L288.013 380.958L287.676 381.969L289.574 382.601L291.471 383.233L291.808 382.223L289.911 381.59ZM289.574 382.601L288.786 384.439C288.912 384.493 289.025 384.529 289.093 384.55C289.167 384.572 289.24 384.592 289.297 384.608C289.426 384.642 289.528 384.668 289.668 384.708L290.217 382.785L290.766 380.862C290.584 380.81 290.418 380.767 290.332 380.744C290.282 380.73 290.262 380.724 290.255 380.722C290.243 380.719 290.29 380.732 290.362 380.763L289.574 382.601ZM290.217 382.785L289.762 384.732C290.189 384.832 290.544 384.913 290.715 384.941L291.044 382.969L291.373 380.996C291.391 380.999 291.389 380.999 291.348 380.99C291.314 380.983 291.266 380.973 291.202 380.959C291.074 380.93 290.898 380.89 290.671 380.837L290.217 382.785ZM291.044 382.969L289.63 381.554C289.618 381.566 289.606 381.578 289.586 381.597C289.566 381.616 289.536 381.644 289.497 381.678L290.814 383.183L292.131 384.688C292.301 384.54 292.412 384.429 292.458 384.383L291.044 382.969ZM290.814 383.183L289.437 381.733C289.087 382.065 288.775 382.395 288.491 382.694L289.941 384.071L291.391 385.449C291.689 385.135 291.929 384.882 292.192 384.633L290.814 383.183ZM289.941 384.071L288.719 385.654L289.592 386.328L290.814 384.745L292.036 383.162L291.163 382.488L289.941 384.071ZM290.814 384.745L292.495 385.829C292.826 385.316 293.108 384.835 293.346 384.432L291.626 383.413L289.905 382.393C289.654 382.817 289.415 383.225 289.134 383.661L290.814 384.745ZM291.626 383.413L289.916 384.451L290.697 385.737L292.407 384.699L294.117 383.661L293.335 382.375L291.626 383.413ZM292.407 384.699L293.503 386.372L294.391 385.79L293.295 384.117L292.199 382.444L291.311 383.026L292.407 384.699ZM293.295 384.117L294.923 382.955C294.757 382.723 294.565 382.513 294.372 382.32L292.958 383.734L291.544 385.148C291.598 385.202 291.632 385.24 291.653 385.263C291.674 385.287 291.676 385.291 291.668 385.28L293.295 384.117ZM292.958 383.734L294.458 382.411L293.769 381.63L292.269 382.953L290.769 384.276L291.459 385.058L292.958 383.734ZM292.269 382.953L292.589 384.927C293.184 384.831 293.707 384.733 294.174 384.633L293.755 382.678L293.336 380.722C292.945 380.806 292.488 380.892 291.949 380.979L292.269 382.953ZM293.755 382.678L295.673 382.113L295.367 381.072L293.448 381.636L291.53 382.2L291.836 383.242L293.755 382.678ZM293.448 381.636L292.757 379.759C292.405 379.889 292.033 380.049 291.686 380.2L292.484 382.034L293.281 383.868C293.638 383.713 293.91 383.598 294.14 383.513L293.448 381.636ZM292.484 382.034L291.632 380.225C291.496 380.288 291.381 380.344 291.31 380.378C291.271 380.396 291.247 380.408 291.231 380.415C291.212 380.424 291.224 380.418 291.251 380.407L291.993 382.264L292.736 384.121C292.802 384.095 292.861 384.068 292.9 384.05C292.943 384.031 292.988 384.009 293.029 383.989C293.119 383.947 293.21 383.903 293.335 383.844L292.484 382.034ZM291.993 382.264L293.973 382.547C294.083 381.781 294.147 381.143 294.147 380.717H292.147H290.147C290.147 380.843 290.119 381.247 290.014 381.981L291.993 382.264ZM292.147 380.717H290.147V380.733H292.147H294.147V380.717H292.147Z" fill="white" mask="url(#path-46-inside-5_389_127)"/>
<path d="M82.2499 145H68.2273C66.4545 145 65 143.546 65 141.773V127.773C65 126 66.4318 124.568 68.2045 124.568H82.2045C83.9772 124.568 85.4317 126.023 85.4317 127.796V141.796C85.4317 143.568 83.9999 145 82.2272 145H82.2499Z" stroke="#FFFBFA" stroke-width="2" stroke-linecap="round" stroke-linejoin="round"/>
<path d="M111.773 145H97.7504C95.9777 145 94.5459 143.568 94.5459 141.795V127.773C94.5459 126 96.0004 124.545 97.7732 124.545H111.796C113.546 124.545 115 125.977 115 127.75V141.773C115 143.545 113.546 145 111.773 145Z" stroke="#FFFBFA" stroke-width="2" stroke-linecap="round" stroke-linejoin="round"/>
<path d="M82.2045 115.455H68.2273C66.4318 115.455 65 114 65 112.227V98.25C65 96.4545 66.4545 95 68.25 95H82.2272C84.0227 95 85.4545 96.4545 85.4545 98.2273V112.205C85.4545 114 83.9999 115.455 82.2045 115.455Z" stroke="#FFFBFA" stroke-width="2" stroke-linecap="round" stroke-linejoin="round"/>
<path d="M103.636 95V115.455" stroke="#FFFBFA" stroke-width="2" stroke-miterlimit="10" stroke-linecap="round"/>
<path d="M115 106.364H94.5459" stroke="#FFFBFA" stroke-width="2" stroke-miterlimit="10" stroke-linecap="round"/>
<defs>
<filter id="filter0_n_389_127" x="0" y="0" width="569" height="524" filterUnits="userSpaceOnUse" color-interpolation-filters="sRGB">
<feFlood flood-opacity="0" result="BackgroundImageFix"/>
<feBlend mode="normal" in="SourceGraphic" in2="BackgroundImageFix" result="shape"/>
<feTurbulence type="fractalNoise" baseFrequency="inf inf" stitchTiles="stitch" numOctaves="3" result="noise" seed="522" />
<feColorMatrix in="noise" type="luminanceToAlpha" result="alphaNoise" />
<feComponentTransfer in="alphaNoise" result="coloredNoise1">
<feFuncA type="discrete" tableValues="1 1 1 1 1 1 1 1 1 1 1 1 1 1 1 1 1 1 1 1 1 1 1 1 1 1 1 1 1 1 1 1 1 1 1 1 1 1 1 1 1 1 1 1 1 1 1 1 1 1 1 0 0 0 0 0 0 0 0 0 0 0 0 0 0 0 0 0 0 0 0 0 0 0 0 0 0 0 0 0 0 0 0 0 0 0 0 0 0 0 0 0 0 0 0 0 0 0 0 0 "/>
</feComponentTransfer>
<feComposite operator="in" in2="shape" in="coloredNoise1" result="noise1Clipped" />
<feFlood flood-color="rgba(0, 0, 0, 0.25)" result="color1Flood" />
<feComposite operator="in" in2="noise1Clipped" in="color1Flood" result="color1" />
<feMerge result="effect1_noise_389_127">
<feMergeNode in="shape" />
<feMergeNode in="color1" />
</feMerge>
</filter>
</defs>
</svg>
