<svg width="73" height="72" viewBox="0 0 73 72" fill="none" xmlns="http://www.w3.org/2000/svg">
<path d="M61.5033 70.367V53.3325H46.7453V70.8604H49.6796H49.8008V58.1018H38.9897V70.8604" stroke="#0733BA" stroke-width="2" stroke-linecap="round" stroke-linejoin="round"/>
<path d="M61.4515 70.8605H58.2056V44.27H70.6006V70.8605" stroke="#0733BA" stroke-width="2" stroke-linecap="round" stroke-linejoin="round"/>
<path d="M38.9897 52.294L45.0834 45.43L52.4321 46.0099L70.8429 28.3955" stroke="#0733BA" stroke-width="2" stroke-linecap="round" stroke-linejoin="round"/>
<path d="M65.6235 27.9189H71.1113V33.3374" stroke="#0733BA" stroke-width="2" stroke-linecap="round" stroke-linejoin="round"/>
<path d="M8.03712 18.8049H70.722C71.1981 18.8049 71.5876 18.424 71.5876 17.9479V1.85692C71.5876 1.38085 71.1981 1 70.722 1H1.86557C1.38951 1 1 1.38085 1 1.85692V69.9949C1 70.471 1.38951 70.8518 1.86557 70.8518H38.8429" stroke="#282828" stroke-width="2" stroke-linecap="round" stroke-linejoin="round"/>
<path d="M10.1579 12.3215C11.3769 12.3215 12.3651 11.3449 12.3651 10.1402C12.3651 8.93556 11.3769 7.95898 10.1579 7.95898C8.93889 7.95898 7.95068 8.93556 7.95068 10.1402C7.95068 11.3449 8.93889 12.3215 10.1579 12.3215Z" stroke="#282828" stroke-width="2" stroke-linecap="round" stroke-linejoin="round"/>
<path d="M17.0134 12.3215C18.2324 12.3215 19.2206 11.3449 19.2206 10.1402C19.2206 8.93556 18.2324 7.95898 17.0134 7.95898C15.7944 7.95898 14.8062 8.93556 14.8062 10.1402C14.8062 11.3449 15.7944 12.3215 17.0134 12.3215Z" stroke="#282828" stroke-width="2" stroke-linecap="round" stroke-linejoin="round"/>
<path d="M23.86 12.3215C25.0791 12.3215 26.0673 11.3449 26.0673 10.1402C26.0673 8.93556 25.0791 7.95898 23.86 7.95898C22.641 7.95898 21.6528 8.93556 21.6528 10.1402C21.6528 11.3449 22.641 12.3215 23.86 12.3215Z" stroke="#282828" stroke-width="2" stroke-linecap="round" stroke-linejoin="round"/>
<path d="M23.5222 55.4532C31.7254 55.4532 38.3755 48.8691 38.3755 40.7471C38.3755 32.6252 31.7254 26.041 23.5222 26.041C15.319 26.041 8.66895 32.6252 8.66895 40.7471C8.66895 48.8691 15.319 55.4532 23.5222 55.4532Z" stroke="#282828" stroke-width="2" stroke-linecap="round" stroke-linejoin="round"/>
<path d="M15.2817 41.9069L20.882 47.6629L33.2684 36.6528" stroke="#282828" stroke-width="2" stroke-linecap="round" stroke-linejoin="round"/>
</svg>
